solid STL generated by MeshLab
  facet normal  1.750517e-07 -7.071069e-01 -7.071066e-01
    outer loop
      vertex  -2.640757e-02 -1.557907e-01 -1.977627e-01
      vertex  -2.139080e-02 -1.916249e-01 -1.619285e-01
      vertex  -6.250000e-02 -1.791936e-01 -1.743598e-01
    endloop
  endfacet
  facet normal  4.118033e-07  7.071069e-01  7.071066e-01
    outer loop
      vertex  -2.784113e-02  1.920628e-01  1.614907e-01
      vertex   2.337682e-02  1.919982e-01  1.615551e-01
      vertex   3.417969e-03  2.209709e-01  1.325825e-01
    endloop
  endfacet
  facet normal  0.000000e+00 -7.071068e-01 -7.071068e-01
    outer loop
      vertex  -6.250000e-02 -1.325825e-01 -2.209709e-01
      vertex  -2.640757e-02 -1.557907e-01 -1.977627e-01
      vertex  -6.250000e-02 -1.791936e-01 -1.743598e-01
    endloop
  endfacet
  facet normal  6.692226e-07 -7.071069e-01 -7.071066e-01
    outer loop
      vertex  -2.139080e-02 -1.916249e-01 -1.619285e-01
      vertex  -2.640757e-02 -1.557907e-01 -1.977627e-01
      vertex   1.779521e-02 -1.650401e-01 -1.885132e-01
    endloop
  endfacet
  facet normal  2.396545e-07 -7.071068e-01 -7.071068e-01
    outer loop
      vertex  -6.250000e-02 -1.791936e-01 -1.743598e-01
      vertex  -2.139080e-02 -1.916249e-01 -1.619285e-01
      vertex  -6.250000e-02 -2.209709e-01 -1.325825e-01
    endloop
  endfacet
  facet normal  0.000000e+00 -7.071064e-01 -7.071072e-01
    outer loop
      vertex   2.340397e-02 -1.967391e-01 -1.568142e-01
      vertex   6.250000e-02 -2.209709e-01 -1.325825e-01
      vertex  -5.371094e-03 -2.209709e-01 -1.325825e-01
    endloop
  endfacet
  facet normal -0.000000e+00 -7.071068e-01 -7.071068e-01
    outer loop
      vertex  -3.076172e-02 -1.325825e-01 -2.209709e-01
      vertex  -2.640757e-02 -1.557907e-01 -1.977627e-01
      vertex  -6.250000e-02 -1.325825e-01 -2.209709e-01
    endloop
  endfacet
  facet normal -1.000000e+00  0.000000e+00  0.000000e+00
    outer loop
      vertex  -6.250000e-02 -4.773316e-02  4.065520e-02
      vertex  -6.250000e-02 -1.130751e-02  7.708085e-02
      vertex  -6.250000e-02 -2.486482e-02  2.044065e-02
    endloop
  endfacet
  facet normal  1.297010e-07 -7.071068e-01  7.071068e-01
    outer loop
      vertex   6.250000e-02 -3.239306e-02  5.599529e-02
      vertex   2.227917e-02 -6.238019e-02  2.600817e-02
      vertex   6.250000e-02 -5.606272e-02  3.232563e-02
    endloop
  endfacet
  facet normal -0.000000e+00  7.071068e-01  7.071068e-01
    outer loop
      vertex   3.417969e-03  2.209709e-01  1.325825e-01
      vertex   2.337682e-02  1.919982e-01  1.615551e-01
      vertex   6.250000e-02  2.209709e-01  1.325825e-01
    endloop
  endfacet
  facet normal -3.265002e-07  7.071068e-01  7.071068e-01
    outer loop
      vertex   3.097949e-02  1.594253e-01  1.941281e-01
      vertex   6.250000e-02  1.325825e-01  2.209709e-01
      vertex   6.250000e-02  1.805746e-01  1.729788e-01
    endloop
  endfacet
  facet normal -6.253644e-07  7.071068e-01  7.071068e-01
    outer loop
      vertex  -6.250000e-02  2.209709e-01  1.325825e-01
      vertex  -6.250000e-02  1.981833e-01  1.553701e-01
      vertex  -2.784113e-02  1.920628e-01  1.614907e-01
    endloop
  endfacet
  facet normal -1.000000e+00  0.000000e+00 -0.000000e+00
    outer loop
      vertex  -6.250000e-02 -1.767875e-01 -8.839913e-02
      vertex  -6.250000e-02 -1.679262e-01 -1.294760e-01
      vertex  -6.250000e-02 -2.209709e-01 -1.325825e-01
    endloop
  endfacet
  facet normal -1.560998e-07  7.071068e-01 -7.071068e-01
    outer loop
      vertex   6.250000e-02  1.892063e-01  1.008179e-01
      vertex   2.929681e-02  1.959708e-01  1.075824e-01
      vertex   6.250000e-02  2.209709e-01  1.325825e-01
    endloop
  endfacet
  facet normal  0.000000e+00  7.071068e-01 -7.071068e-01
    outer loop
      vertex  -6.250000e-02  1.649081e-01  7.651977e-02
      vertex  -1.766022e-02  1.428339e-01  5.444556e-02
      vertex  -6.250000e-02  1.242961e-01  3.590775e-02
    endloop
  endfacet
  facet normal  1.000000e+00  0.000000e+00  0.000000e+00
    outer loop
      vertex   6.250000e-02 -2.352641e-02 -5.479570e-02
      vertex   6.250000e-02 -6.002535e-02 -8.946906e-02
      vertex   6.250000e-02 -3.668450e-03 -9.205680e-02
    endloop
  endfacet
  facet normal -1.000000e+00 -0.000000e+00  0.000000e+00
    outer loop
      vertex  -6.250000e-02  1.182427e-01  1.650114e-01
      vertex  -6.250000e-02  6.283857e-02  1.512269e-01
      vertex  -6.250000e-02  9.572527e-02  1.841136e-01
    endloop
  endfacet
  facet normal  1.029076e-07  7.071068e-01 -7.071067e-01
    outer loop
      vertex   1.352365e-02 -5.199052e-02 -1.403789e-01
      vertex   6.250000e-02 -5.006369e-02 -1.384520e-01
      vertex   2.012982e-02 -8.133385e-02 -1.697222e-01
    endloop
  endfacet
  facet normal  1.000000e+00  0.000000e+00  0.000000e+00
    outer loop
      vertex   6.250000e-02  1.330531e-01  1.774870e-01
      vertex   6.250000e-02  8.270770e-02  1.710961e-01
      vertex   6.250000e-02  1.045350e-01  1.332653e-01
    endloop
  endfacet
  facet normal -1.000000e+00  0.000000e+00 -0.000000e+00
    outer loop
      vertex  -6.250000e-02  9.140236e-02  1.225746e-01
      vertex  -6.250000e-02  1.141683e-01  8.211836e-02
      vertex  -6.250000e-02  5.795034e-02  8.667683e-02
    endloop
  endfacet
  facet normal  1.000000e+00 -0.000000e+00  0.000000e+00
    outer loop
      vertex   6.250000e-02  2.433909e-02  5.662324e-02
      vertex   6.250000e-02  7.339310e-02  5.001824e-02
      vertex   6.250000e-02  5.975962e-02  9.422800e-02
    endloop
  endfacet
  facet normal  1.000000e+00  0.000000e+00  0.000000e+00
    outer loop
      vertex   6.250000e-02 -2.352641e-02 -5.479570e-02
      vertex   6.250000e-02 -4.451000e-02 -1.498991e-02
      vertex   6.250000e-02 -7.607321e-02 -4.901871e-02
    endloop
  endfacet
  facet normal  0.000000e+00  7.071066e-01 -7.071069e-01
    outer loop
      vertex  -6.250000e-02 -1.007444e-01 -1.891328e-01
      vertex  -3.076172e-02 -1.325825e-01 -2.209709e-01
      vertex  -6.250000e-02 -1.325825e-01 -2.209709e-01
    endloop
  endfacet
  facet normal  5.334667e-07 -7.071072e-01 -7.071063e-01
    outer loop
      vertex  -2.640757e-02 -1.557907e-01 -1.977627e-01
      vertex   1.074219e-02 -1.325825e-01 -2.209709e-01
      vertex   1.779521e-02 -1.650401e-01 -1.885132e-01
    endloop
  endfacet
  facet normal -4.281287e-07 -7.071068e-01  7.071067e-01
    outer loop
      vertex  -1.645357e-02  1.098413e-01  1.982296e-01
      vertex  -1.951018e-02  7.697889e-02  1.653672e-01
      vertex   2.342770e-02  9.828438e-02  1.866728e-01
    endloop
  endfacet
  facet normal  0.000000e+00  7.071069e-01 -7.071065e-01
    outer loop
      vertex   6.250000e-02  1.105286e-01  2.214022e-02
      vertex   2.042378e-02  8.495531e-02 -3.433055e-03
      vertex   2.778019e-02  1.224885e-01  3.410013e-02
    endloop
  endfacet
  facet normal -5.072293e-07 -7.071068e-01 -7.071068e-01
    outer loop
      vertex   6.250000e-02 -2.209709e-01 -1.325825e-01
      vertex   2.340397e-02 -1.967391e-01 -1.568142e-01
      vertex   6.250000e-02 -1.753093e-01 -1.782441e-01
    endloop
  endfacet
  facet normal -6.660533e-07 -7.071067e-01 -7.071069e-01
    outer loop
      vertex   2.340397e-02 -1.967391e-01 -1.568142e-01
      vertex   1.779521e-02 -1.650401e-01 -1.885132e-01
      vertex   6.250000e-02 -1.753093e-01 -1.782441e-01
    endloop
  endfacet
  facet normal  0.000000e+00 -7.071068e-01 -7.071068e-01
    outer loop
      vertex  -2.640757e-02 -1.557907e-01 -1.977627e-01
      vertex  -3.076172e-02 -1.325825e-01 -2.209709e-01
      vertex   1.074219e-02 -1.325825e-01 -2.209709e-01
    endloop
  endfacet
  facet normal -1.000000e+00  0.000000e+00  0.000000e+00
    outer loop
      vertex  -6.250000e-02 -7.969281e-02 -1.085524e-01
      vertex  -6.250000e-02 -2.175179e-02 -1.101401e-01
      vertex  -6.250000e-02 -6.075618e-02 -1.491445e-01
    endloop
  endfacet
  facet normal -1.000000e+00 -0.000000e+00  0.000000e+00
    outer loop
      vertex  -6.250000e-02  1.242961e-01  3.590775e-02
      vertex  -6.250000e-02  8.286408e-02 -5.524279e-03
      vertex  -6.250000e-02  7.144258e-02  4.417114e-02
    endloop
  endfacet
  facet normal  2.395135e-07 -7.071068e-01  7.071068e-01
    outer loop
      vertex   1.834124e-02 -1.918106e-01 -1.034222e-01
      vertex   6.250000e-02 -2.209709e-01 -1.325825e-01
      vertex   6.250000e-02 -1.934871e-01 -1.050987e-01
    endloop
  endfacet
  facet normal -2.889952e-08 -7.071067e-01  7.071069e-01
    outer loop
      vertex  -1.951018e-02  7.697889e-02  1.653672e-01
      vertex  -1.872488e-02  4.310187e-02  1.314902e-01
      vertex   2.290296e-02  6.090976e-02  1.492981e-01
    endloop
  endfacet
  facet normal  2.053869e-07 -7.071068e-01  7.071068e-01
    outer loop
      vertex   2.227917e-02 -6.238019e-02  2.600817e-02
      vertex  -1.887958e-02 -8.934771e-02 -9.593364e-04
      vertex   2.541194e-02 -1.090165e-01 -2.062815e-02
    endloop
  endfacet
  facet normal  2.676514e-07 -7.071069e-01  7.071066e-01
    outer loop
      vertex   2.227917e-02 -6.238019e-02  2.600817e-02
      vertex   6.250000e-02 -3.239306e-02  5.599529e-02
      vertex   2.393610e-02 -1.526460e-02  7.312377e-02
    endloop
  endfacet
  facet normal  0.000000e+00  7.071070e-01  7.071066e-01
    outer loop
      vertex   6.250000e-02  1.325825e-01  2.209709e-01
      vertex   3.097949e-02  1.594253e-01  1.941281e-01
      vertex   2.807617e-02  1.325825e-01  2.209709e-01
    endloop
  endfacet
  facet normal  0.000000e+00  7.071069e-01  7.071065e-01
    outer loop
      vertex   3.097949e-02  1.594253e-01  1.941281e-01
      vertex  -1.721191e-02  1.325825e-01  2.209709e-01
      vertex   2.807617e-02  1.325825e-01  2.209709e-01
    endloop
  endfacet
  facet normal -6.141966e-07  7.071068e-01  7.071068e-01
    outer loop
      vertex  -2.784113e-02  1.920628e-01  1.614907e-01
      vertex  -6.250000e-02  1.981833e-01  1.553701e-01
      vertex  -6.250000e-02  1.691808e-01  1.843726e-01
    endloop
  endfacet
  facet normal -1.997865e-07  7.071066e-01 -7.071069e-01
    outer loop
      vertex  -1.543712e-02  1.830898e-01  9.470139e-02
      vertex  -1.766022e-02  1.428339e-01  5.444556e-02
      vertex  -6.250000e-02  1.649081e-01  7.651977e-02
    endloop
  endfacet
  facet normal  1.000000e+00 -0.000000e+00  0.000000e+00
    outer loop
      vertex   6.250000e-02 -1.102588e-02  2.229514e-02
      vertex   6.250000e-02  4.344160e-02  1.537158e-02
      vertex   6.250000e-02  2.433909e-02  5.662324e-02
    endloop
  endfacet
  facet normal  1.000000e+00  0.000000e+00  0.000000e+00
    outer loop
      vertex   6.250000e-02 -1.449873e-01 -1.151989e-01
      vertex   6.250000e-02 -1.528022e-01 -6.441386e-02
      vertex   6.250000e-02 -1.934871e-01 -1.050987e-01
    endloop
  endfacet
  facet normal -1.000000e+00  0.000000e+00  0.000000e+00
    outer loop
      vertex  -6.250000e-02  1.242961e-01  3.590775e-02
      vertex  -6.250000e-02  1.141683e-01  8.211836e-02
      vertex  -6.250000e-02  1.649081e-01  7.651977e-02
    endloop
  endfacet
  facet normal  1.000000e+00 -0.000000e+00  0.000000e+00
    outer loop
      vertex   6.250000e-02 -1.237782e-01 -3.538984e-02
      vertex   6.250000e-02 -7.607321e-02 -4.901871e-02
      vertex   6.250000e-02 -9.752172e-02 -9.133369e-03
    endloop
  endfacet
  facet normal -1.433461e-08  7.071067e-01 -7.071069e-01
    outer loop
      vertex  -1.319586e-02 -1.049695e-01 -1.933579e-01
      vertex  -3.076172e-02 -1.325825e-01 -2.209709e-01
      vertex  -6.250000e-02 -1.007444e-01 -1.891328e-01
    endloop
  endfacet
  facet normal  0.000000e+00  7.071072e-01  7.071064e-01
    outer loop
      vertex  -2.784113e-02  1.920628e-01  1.614907e-01
      vertex   3.417969e-03  2.209709e-01  1.325825e-01
      vertex  -6.250000e-02  2.209709e-01  1.325825e-01
    endloop
  endfacet
  facet normal  0.000000e+00 -7.071066e-01 -7.071069e-01
    outer loop
      vertex  -2.139080e-02 -1.916249e-01 -1.619285e-01
      vertex  -5.371094e-03 -2.209709e-01 -1.325825e-01
      vertex  -6.250000e-02 -2.209709e-01 -1.325825e-01
    endloop
  endfacet
  facet normal  0.000000e+00  7.071068e-01  7.071068e-01
    outer loop
      vertex   2.337682e-02  1.919982e-01  1.615551e-01
      vertex   6.250000e-02  1.805746e-01  1.729788e-01
      vertex   6.250000e-02  2.209709e-01  1.325825e-01
    endloop
  endfacet
  facet normal  7.757821e-08  7.071069e-01 -7.071066e-01
    outer loop
      vertex  -1.812983e-02 -2.133700e-05 -8.840970e-02
      vertex   2.416427e-02 -2.028327e-02 -1.086716e-01
      vertex  -2.088905e-02 -3.633229e-02 -1.247207e-01
    endloop
  endfacet
  facet normal  1.799356e-07 -7.071068e-01  7.071068e-01
    outer loop
      vertex   6.250000e-02 -1.934871e-01 -1.050987e-01
      vertex   6.250000e-02 -1.528022e-01 -6.441386e-02
      vertex   2.876610e-02 -1.518100e-01 -6.342167e-02
    endloop
  endfacet
  facet normal  2.218983e-07 -7.071068e-01  7.071068e-01
    outer loop
      vertex   2.541194e-02 -1.090165e-01 -2.062815e-02
      vertex   6.250000e-02 -1.237782e-01 -3.538984e-02
      vertex   6.250000e-02 -9.752172e-02 -9.133369e-03
    endloop
  endfacet
  facet normal  0.000000e+00  7.071068e-01 -7.071068e-01
    outer loop
      vertex   3.417969e-03  2.209709e-01  1.325825e-01
      vertex  -6.250000e-02  2.069876e-01  1.185992e-01
      vertex  -6.250000e-02  2.209709e-01  1.325825e-01
    endloop
  endfacet
  facet normal  1.961974e-07 -7.071071e-01  7.071065e-01
    outer loop
      vertex   2.342770e-02  9.828438e-02  1.866728e-01
      vertex   2.290296e-02  6.090976e-02  1.492981e-01
      vertex   6.250000e-02  8.270770e-02  1.710961e-01
    endloop
  endfacet
  facet normal -1.870759e-07 -7.071068e-01  7.071068e-01
    outer loop
      vertex  -2.021971e-02 -3.160703e-02  5.678134e-02
      vertex  -6.250000e-02 -1.130751e-02  7.708085e-02
      vertex  -6.250000e-02 -4.773316e-02  4.065520e-02
    endloop
  endfacet
  facet normal  1.000000e+00 -0.000000e+00  0.000000e+00
    outer loop
      vertex   6.250000e-02 -2.352641e-02 -5.479570e-02
      vertex   6.250000e-02 -3.668450e-03 -9.205680e-02
      vertex   6.250000e-02  3.901518e-02 -4.937318e-02
    endloop
  endfacet
  facet normal  1.981420e-07 -7.071067e-01  7.071068e-01
    outer loop
      vertex   6.250000e-02 -9.752172e-02 -9.133369e-03
      vertex   2.227917e-02 -6.238019e-02  2.600817e-02
      vertex   2.541194e-02 -1.090165e-01 -2.062815e-02
    endloop
  endfacet
  facet normal -1.000000e+00  0.000000e+00  0.000000e+00
    outer loop
      vertex  -6.250000e-02 -7.699453e-02  1.139382e-02
      vertex  -6.250000e-02 -2.486482e-02  2.044065e-02
      vertex  -6.250000e-02 -6.169853e-02 -2.411027e-02
    endloop
  endfacet
  facet normal -1.000000e+00  0.000000e+00  0.000000e+00
    outer loop
      vertex  -6.250000e-02 -1.791936e-01 -1.743598e-01
      vertex  -6.250000e-02 -1.246440e-01 -1.536020e-01
      vertex  -6.250000e-02 -1.325825e-01 -2.209709e-01
    endloop
  endfacet
  facet normal -2.338431e-08  7.071068e-01 -7.071068e-01
    outer loop
      vertex  -1.766022e-02  1.428339e-01  5.444556e-02
      vertex  -1.902574e-02  1.030160e-01  1.462763e-02
      vertex  -6.250000e-02  1.242961e-01  3.590775e-02
    endloop
  endfacet
  facet normal -9.214475e-08  7.071070e-01 -7.071065e-01
    outer loop
      vertex   3.417969e-03  2.209709e-01  1.325825e-01
      vertex  -1.543712e-02  1.830898e-01  9.470139e-02
      vertex  -6.250000e-02  2.069876e-01  1.185992e-01
    endloop
  endfacet
  facet normal -1.000000e+00  0.000000e+00  0.000000e+00
    outer loop
      vertex  -6.250000e-02  9.140236e-02  1.225746e-01
      vertex  -6.250000e-02  6.283857e-02  1.512269e-01
      vertex  -6.250000e-02  1.182427e-01  1.650114e-01
    endloop
  endfacet
  facet normal -1.000000e+00  0.000000e+00 -0.000000e+00
    outer loop
      vertex  -6.250000e-02  2.079114e-02  5.662876e-02
      vertex  -6.250000e-02  2.939491e-02  8.345393e-03
      vertex  -6.250000e-02 -2.486482e-02  2.044065e-02
    endloop
  endfacet
  facet normal  1.701939e-07  7.071068e-01 -7.071068e-01
    outer loop
      vertex   6.250000e-02 -5.006369e-02 -1.384520e-01
      vertex   6.250000e-02 -9.572527e-02 -1.841136e-01
      vertex   2.012982e-02 -8.133385e-02 -1.697222e-01
    endloop
  endfacet
  facet normal  2.921762e-07 -7.071065e-01 -7.071071e-01
    outer loop
      vertex   2.340397e-02 -1.967391e-01 -1.568142e-01
      vertex  -5.371094e-03 -2.209709e-01 -1.325825e-01
      vertex  -2.139080e-02 -1.916249e-01 -1.619285e-01
    endloop
  endfacet
  facet normal -1.039800e-07  7.071066e-01  7.071069e-01
    outer loop
      vertex   3.097949e-02  1.594253e-01  1.941281e-01
      vertex   6.250000e-02  1.805746e-01  1.729788e-01
      vertex   2.337682e-02  1.919982e-01  1.615551e-01
    endloop
  endfacet
  facet normal -2.520757e-07  7.071068e-01 -7.071066e-01
    outer loop
      vertex  -6.250000e-02 -2.175179e-02 -1.101401e-01
      vertex  -1.812983e-02 -2.133700e-05 -8.840970e-02
      vertex  -2.088905e-02 -3.633229e-02 -1.247207e-01
    endloop
  endfacet
  facet normal -1.000000e+00  0.000000e+00  0.000000e+00
    outer loop
      vertex  -6.250000e-02  5.795034e-02  8.667683e-02
      vertex  -6.250000e-02  1.242961e-02  1.008180e-01
      vertex  -6.250000e-02  3.107400e-02  1.194624e-01
    endloop
  endfacet
  facet normal -1.000000e+00 -0.000000e+00  0.000000e+00
    outer loop
      vertex  -6.250000e-02  2.079114e-02  5.662876e-02
      vertex  -6.250000e-02 -2.486482e-02  2.044065e-02
      vertex  -6.250000e-02 -1.130751e-02  7.708085e-02
    endloop
  endfacet
  facet normal -3.188955e-07 -7.071068e-01  7.071068e-01
    outer loop
      vertex  -6.250000e-02 -2.209709e-01 -1.325825e-01
      vertex  -2.744588e-02 -1.971408e-01 -1.087525e-01
      vertex  -6.250000e-02 -1.767875e-01 -8.839913e-02
    endloop
  endfacet
  facet normal -1.793176e-07 -7.071067e-01  7.071069e-01
    outer loop
      vertex  -1.872488e-02  4.310187e-02  1.314902e-01
      vertex  -6.250000e-02  3.107400e-02  1.194624e-01
      vertex  -2.311605e-02  7.813070e-03  9.620144e-02
    endloop
  endfacet
  facet normal  1.627901e-07 -7.071067e-01  7.071068e-01
    outer loop
      vertex   2.227917e-02 -6.238019e-02  2.600817e-02
      vertex  -2.808576e-02 -6.044180e-02  2.794658e-02
      vertex  -1.887958e-02 -8.934771e-02 -9.593364e-04
    endloop
  endfacet
  facet normal  1.000000e+00  0.000000e+00  0.000000e+00
    outer loop
      vertex   6.250000e-02  2.209709e-01  1.325825e-01
      vertex   6.250000e-02  1.805746e-01  1.729788e-01
      vertex   6.250000e-02  1.624448e-01  1.415396e-01
    endloop
  endfacet
  facet normal  6.539667e-08 -7.071067e-01  7.071068e-01
    outer loop
      vertex  -2.311605e-02  7.813070e-03  9.620144e-02
      vertex   2.393610e-02 -1.526460e-02  7.312377e-02
      vertex   2.467426e-02  2.450171e-02  1.128901e-01
    endloop
  endfacet
  facet normal -1.000000e+00  0.000000e+00  0.000000e+00
    outer loop
      vertex  -6.250000e-02  2.079114e-02  5.662876e-02
      vertex  -6.250000e-02  1.242961e-02  1.008180e-01
      vertex  -6.250000e-02  5.795034e-02  8.667683e-02
    endloop
  endfacet
  facet normal  1.923661e-07  7.071068e-01 -7.071068e-01
    outer loop
      vertex   2.454553e-02  1.895085e-02 -6.943752e-02
      vertex   6.250000e-02 -3.668450e-03 -9.205680e-02
      vertex   2.416427e-02 -2.028327e-02 -1.086716e-01
    endloop
  endfacet
  facet normal -1.000000e+00 -0.000000e+00  0.000000e+00
    outer loop
      vertex  -6.250000e-02 -6.075618e-02 -1.491445e-01
      vertex  -6.250000e-02 -1.246440e-01 -1.536020e-01
      vertex  -6.250000e-02 -7.969281e-02 -1.085524e-01
    endloop
  endfacet
  facet normal -1.000000e+00  0.000000e+00  0.000000e+00
    outer loop
      vertex  -6.250000e-02  2.140656e-02 -6.698179e-02
      vertex  -6.250000e-02 -7.828866e-03 -2.898913e-02
      vertex  -6.250000e-02  4.833740e-02 -4.005096e-02
    endloop
  endfacet
  facet normal  0.000000e+00 -7.071067e-01  7.071067e-01
    outer loop
      vertex   1.834124e-02 -1.918106e-01 -1.034222e-01
      vertex  -1.972843e-02 -1.626967e-01 -7.430835e-02
      vertex  -2.744588e-02 -1.971408e-01 -1.087525e-01
    endloop
  endfacet
  facet normal -2.751309e-08  7.071067e-01 -7.071068e-01
    outer loop
      vertex  -2.240492e-02  6.703891e-02 -2.134945e-02
      vertex  -6.250000e-02  8.286408e-02 -5.524279e-03
      vertex  -1.902574e-02  1.030160e-01  1.462763e-02
    endloop
  endfacet
  facet normal -2.973167e-08  7.071068e-01 -7.071068e-01
    outer loop
      vertex  -6.250000e-02  4.833740e-02 -4.005096e-02
      vertex  -6.250000e-02  8.286408e-02 -5.524279e-03
      vertex  -2.240492e-02  6.703891e-02 -2.134945e-02
    endloop
  endfacet
  facet normal -1.592877e-07  7.071069e-01 -7.071066e-01
    outer loop
      vertex  -2.240492e-02  6.703891e-02 -2.134945e-02
      vertex  -1.991609e-02  3.597709e-02 -5.241128e-02
      vertex  -6.250000e-02  4.833740e-02 -4.005096e-02
    endloop
  endfacet
  facet normal  0.000000e+00  7.071068e-01 -7.071068e-01
    outer loop
      vertex  -1.319586e-02 -1.049695e-01 -1.933579e-01
      vertex   2.012982e-02 -8.133385e-02 -1.697222e-01
      vertex   2.679775e-02 -1.094504e-01 -1.978387e-01
    endloop
  endfacet
  facet normal -1.504552e-07  7.071068e-01 -7.071068e-01
    outer loop
      vertex  -6.250000e-02  2.140656e-02 -6.698179e-02
      vertex  -1.812983e-02 -2.133700e-05 -8.840970e-02
      vertex  -6.250000e-02 -2.175179e-02 -1.101401e-01
    endloop
  endfacet
  facet normal  1.000000e+00 -0.000000e+00  0.000000e+00
    outer loop
      vertex   6.250000e-02  1.045350e-01  1.332653e-01
      vertex   6.250000e-02  1.401066e-01  1.039277e-01
      vertex   6.250000e-02  1.624448e-01  1.415396e-01
    endloop
  endfacet
  facet normal  1.000000e+00 -0.000000e+00  0.000000e+00
    outer loop
      vertex   6.250000e-02  1.401066e-01  1.039277e-01
      vertex   6.250000e-02  1.892063e-01  1.008179e-01
      vertex   6.250000e-02  1.624448e-01  1.415396e-01
    endloop
  endfacet
  facet normal -1.000000e+00  0.000000e+00  0.000000e+00
    outer loop
      vertex  -6.250000e-02 -6.169853e-02 -2.411027e-02
      vertex  -6.250000e-02 -9.952319e-02 -1.113483e-02
      vertex  -6.250000e-02 -7.699453e-02  1.139382e-02
    endloop
  endfacet
  facet normal -1.000000e+00  0.000000e+00  0.000000e+00
    outer loop
      vertex  -6.250000e-02  7.144258e-02  4.417114e-02
      vertex  -6.250000e-02  1.141683e-01  8.211836e-02
      vertex  -6.250000e-02  1.242961e-01  3.590775e-02
    endloop
  endfacet
  facet normal  2.679654e-07  7.071068e-01 -7.071068e-01
    outer loop
      vertex   2.042378e-02  8.495531e-02 -3.433055e-03
      vertex   6.250000e-02  1.105286e-01  2.214022e-02
      vertex   6.250000e-02  6.672284e-02 -2.166551e-02
    endloop
  endfacet
  facet normal -2.112100e-07  7.071067e-01 -7.071069e-01
    outer loop
      vertex  -1.812983e-02 -2.133700e-05 -8.840970e-02
      vertex  -6.250000e-02  2.140656e-02 -6.698179e-02
      vertex  -1.991609e-02  3.597709e-02 -5.241128e-02
    endloop
  endfacet
  facet normal  1.000000e+00 -0.000000e+00  0.000000e+00
    outer loop
      vertex   6.250000e-02  7.339310e-02  5.001824e-02
      vertex   6.250000e-02  1.105286e-01  2.214022e-02
      vertex   6.250000e-02  1.033367e-01  7.963838e-02
    endloop
  endfacet
  facet normal -2.559802e-07 -7.071069e-01  7.071068e-01
    outer loop
      vertex  -2.021971e-02 -3.160703e-02  5.678134e-02
      vertex  -2.311605e-02  7.813070e-03  9.620144e-02
      vertex  -6.250000e-02 -1.130751e-02  7.708085e-02
    endloop
  endfacet
  facet normal  4.669288e-08  7.071067e-01 -7.071068e-01
    outer loop
      vertex   2.778019e-02  1.224885e-01  3.410013e-02
      vertex  -1.766022e-02  1.428339e-01  5.444556e-02
      vertex   2.465029e-02  1.626872e-01  7.429887e-02
    endloop
  endfacet
  facet normal -3.296761e-07  7.071068e-01 -7.071068e-01
    outer loop
      vertex  -6.250000e-02 -6.075618e-02 -1.491445e-01
      vertex  -6.250000e-02 -2.175179e-02 -1.101401e-01
      vertex  -2.088905e-02 -3.633229e-02 -1.247207e-01
    endloop
  endfacet
  facet normal  1.000000e+00  0.000000e+00  0.000000e+00
    outer loop
      vertex   6.250000e-02  8.314106e-03 -1.733915e-02
      vertex   6.250000e-02 -2.352641e-02 -5.479570e-02
      vertex   6.250000e-02  3.901518e-02 -4.937318e-02
    endloop
  endfacet
  facet normal  1.000000e+00 -0.000000e+00  0.000000e+00
    outer loop
      vertex   6.250000e-02 -1.528022e-01 -6.441386e-02
      vertex   6.250000e-02 -1.082265e-01 -8.250062e-02
      vertex   6.250000e-02 -1.237782e-01 -3.538984e-02
    endloop
  endfacet
  facet normal -1.000000e+00 -0.000000e+00  0.000000e+00
    outer loop
      vertex  -6.250000e-02 -9.558822e-02 -6.229560e-02
      vertex  -6.250000e-02 -1.330613e-01 -9.501185e-02
      vertex  -6.250000e-02 -1.395310e-01 -5.114266e-02
    endloop
  endfacet
  facet normal -1.000000e+00  0.000000e+00 -0.000000e+00
    outer loop
      vertex  -6.250000e-02 -9.952319e-02 -1.113483e-02
      vertex  -6.250000e-02 -9.558822e-02 -6.229560e-02
      vertex  -6.250000e-02 -1.395310e-01 -5.114266e-02
    endloop
  endfacet
  facet normal -1.000000e+00  0.000000e+00 -0.000000e+00
    outer loop
      vertex  -6.250000e-02  7.144258e-02  4.417114e-02
      vertex  -6.250000e-02  8.286408e-02 -5.524279e-03
      vertex  -6.250000e-02  2.939491e-02  8.345393e-03
    endloop
  endfacet
  facet normal -8.017933e-08 -7.071068e-01  7.071066e-01
    outer loop
      vertex   2.227917e-02 -6.238019e-02  2.600817e-02
      vertex   2.393610e-02 -1.526460e-02  7.312377e-02
      vertex  -2.021971e-02 -3.160703e-02  5.678134e-02
    endloop
  endfacet
  facet normal -1.643680e-07  7.071068e-01 -7.071068e-01
    outer loop
      vertex   6.250000e-02  1.105286e-01  2.214022e-02
      vertex   2.778019e-02  1.224885e-01  3.410013e-02
      vertex   6.250000e-02  1.429837e-01  5.459532e-02
    endloop
  endfacet
  facet normal  2.689282e-07  7.071068e-01 -7.071068e-01
    outer loop
      vertex   2.107237e-02  5.273439e-02 -3.565397e-02
      vertex   6.250000e-02  6.672284e-02 -2.166551e-02
      vertex   6.250000e-02  3.901518e-02 -4.937318e-02
    endloop
  endfacet
  facet normal -4.127954e-08  7.071066e-01 -7.071069e-01
    outer loop
      vertex   1.074219e-02 -1.325825e-01 -2.209709e-01
      vertex  -1.319586e-02 -1.049695e-01 -1.933579e-01
      vertex   2.679775e-02 -1.094504e-01 -1.978387e-01
    endloop
  endfacet
  facet normal  0.000000e+00 -7.071073e-01 -7.071063e-01
    outer loop
      vertex   1.779521e-02 -1.650401e-01 -1.885132e-01
      vertex   1.074219e-02 -1.325825e-01 -2.209709e-01
      vertex   6.250000e-02 -1.325825e-01 -2.209709e-01
    endloop
  endfacet
  facet normal -1.000000e+00  0.000000e+00  0.000000e+00
    outer loop
      vertex  -6.250000e-02  1.182427e-01  1.650114e-01
      vertex  -6.250000e-02  9.572527e-02  1.841136e-01
      vertex  -6.250000e-02  1.325825e-01  2.209709e-01
    endloop
  endfacet
  facet normal -1.000000e+00  0.000000e+00  0.000000e+00
    outer loop
      vertex  -6.250000e-02  3.107400e-02  1.194624e-01
      vertex  -6.250000e-02  6.283857e-02  1.512269e-01
      vertex  -6.250000e-02  9.140236e-02  1.225746e-01
    endloop
  endfacet
  facet normal -1.000000e+00  0.000000e+00  0.000000e+00
    outer loop
      vertex  -6.250000e-02 -1.130751e-02  7.708085e-02
      vertex  -6.250000e-02  1.242961e-02  1.008180e-01
      vertex  -6.250000e-02  2.079114e-02  5.662876e-02
    endloop
  endfacet
  facet normal -1.000000e+00  0.000000e+00  0.000000e+00
    outer loop
      vertex  -6.250000e-02 -2.209709e-01 -1.325825e-01
      vertex  -6.250000e-02 -1.679262e-01 -1.294760e-01
      vertex  -6.250000e-02 -1.791936e-01 -1.743598e-01
    endloop
  endfacet
  facet normal -1.000000e+00  0.000000e+00 -0.000000e+00
    outer loop
      vertex  -6.250000e-02 -1.246440e-01 -1.536020e-01
      vertex  -6.250000e-02 -1.007444e-01 -1.891328e-01
      vertex  -6.250000e-02 -1.325825e-01 -2.209709e-01
    endloop
  endfacet
  facet normal -1.000000e+00 -0.000000e+00  0.000000e+00
    outer loop
      vertex  -6.250000e-02  1.141683e-01  8.211836e-02
      vertex  -6.250000e-02  7.144258e-02  4.417114e-02
      vertex  -6.250000e-02  5.795034e-02  8.667683e-02
    endloop
  endfacet
  facet normal -1.000000e+00  0.000000e+00 -0.000000e+00
    outer loop
      vertex  -6.250000e-02  1.532292e-01  1.292994e-01
      vertex  -6.250000e-02  1.649081e-01  7.651977e-02
      vertex  -6.250000e-02  1.141683e-01  8.211836e-02
    endloop
  endfacet
  facet normal -1.000000e+00  0.000000e+00  0.000000e+00
    outer loop
      vertex  -6.250000e-02  1.532292e-01  1.292994e-01
      vertex  -6.250000e-02  2.069876e-01  1.185992e-01
      vertex  -6.250000e-02  1.649081e-01  7.651977e-02
    endloop
  endfacet
  facet normal  2.422677e-07 -7.071068e-01  7.071068e-01
    outer loop
      vertex   1.834124e-02 -1.918106e-01 -1.034222e-01
      vertex   6.250000e-02 -1.934871e-01 -1.050987e-01
      vertex   2.876610e-02 -1.518100e-01 -6.342167e-02
    endloop
  endfacet
  facet normal -3.191948e-07 -7.071068e-01  7.071068e-01
    outer loop
      vertex  -2.311605e-02  7.813070e-03  9.620144e-02
      vertex  -6.250000e-02  1.242961e-02  1.008180e-01
      vertex  -6.250000e-02 -1.130751e-02  7.708085e-02
    endloop
  endfacet
  facet normal -3.560074e-07 -7.071068e-01  7.071068e-01
    outer loop
      vertex  -6.250000e-02 -7.699453e-02  1.139382e-02
      vertex  -6.250000e-02 -9.952319e-02 -1.113483e-02
      vertex  -1.887958e-02 -8.934771e-02 -9.593364e-04
    endloop
  endfacet
  facet normal -2.066323e-07 -7.071068e-01  7.071067e-01
    outer loop
      vertex  -6.250000e-02 -1.395310e-01 -5.114266e-02
      vertex  -6.250000e-02 -1.767875e-01 -8.839913e-02
      vertex  -1.972843e-02 -1.626967e-01 -7.430835e-02
    endloop
  endfacet
  facet normal  9.873138e-08 -7.071068e-01  7.071068e-01
    outer loop
      vertex   6.250000e-02 -9.752172e-02 -9.133369e-03
      vertex   6.250000e-02 -5.606272e-02  3.232563e-02
      vertex   2.227917e-02 -6.238019e-02  2.600817e-02
    endloop
  endfacet
  facet normal  0.000000e+00 -7.071067e-01  7.071069e-01
    outer loop
      vertex  -1.872488e-02  4.310187e-02  1.314902e-01
      vertex   2.467426e-02  2.450171e-02  1.128901e-01
      vertex   2.290296e-02  6.090976e-02  1.492981e-01
    endloop
  endfacet
  facet normal  2.619188e-07 -7.071066e-01  7.071068e-01
    outer loop
      vertex   2.290296e-02  6.090976e-02  1.492981e-01
      vertex   2.467426e-02  2.450171e-02  1.128901e-01
      vertex   6.250000e-02  4.546767e-02  1.338560e-01
    endloop
  endfacet
  facet normal  0.000000e+00 -7.071068e-01  7.071068e-01
    outer loop
      vertex   2.807617e-02  1.325825e-01  2.209709e-01
      vertex   6.250000e-02  1.167002e-01  2.050886e-01
      vertex   6.250000e-02  1.325825e-01  2.209709e-01
    endloop
  endfacet
  facet normal  1.315176e-07  7.071068e-01 -7.071067e-01
    outer loop
      vertex   2.012982e-02 -8.133385e-02 -1.697222e-01
      vertex   6.250000e-02 -9.572527e-02 -1.841136e-01
      vertex   2.679775e-02 -1.094504e-01 -1.978387e-01
    endloop
  endfacet
  facet normal  1.158301e-07  7.071067e-01 -7.071068e-01
    outer loop
      vertex   6.250000e-02 -5.006369e-02 -1.384520e-01
      vertex   1.352365e-02 -5.199052e-02 -1.403789e-01
      vertex   2.416427e-02 -2.028327e-02 -1.086716e-01
    endloop
  endfacet
  facet normal  1.000000e+00  0.000000e+00 -0.000000e+00
    outer loop
      vertex   6.250000e-02 -9.572527e-02 -1.841136e-01
      vertex   6.250000e-02 -5.006369e-02 -1.384520e-01
      vertex   6.250000e-02 -9.854959e-02 -1.316049e-01
    endloop
  endfacet
  facet normal  1.000000e+00  0.000000e+00 -0.000000e+00
    outer loop
      vertex   6.250000e-02  6.672284e-02 -2.166551e-02
      vertex   6.250000e-02  1.105286e-01  2.214022e-02
      vertex   6.250000e-02  4.344160e-02  1.537158e-02
    endloop
  endfacet
  facet normal  1.000000e+00  0.000000e+00 -0.000000e+00
    outer loop
      vertex   6.250000e-02  1.033367e-01  7.963838e-02
      vertex   6.250000e-02  1.045350e-01  1.332653e-01
      vertex   6.250000e-02  5.975962e-02  9.422800e-02
    endloop
  endfacet
  facet normal  1.000000e+00  0.000000e+00 -0.000000e+00
    outer loop
      vertex   6.250000e-02 -1.753093e-01 -1.782441e-01
      vertex   6.250000e-02 -1.740416e-01 -1.403053e-01
      vertex   6.250000e-02 -2.209709e-01 -1.325825e-01
    endloop
  endfacet
  facet normal -4.770459e-07  7.071069e-01 -7.071066e-01
    outer loop
      vertex  -2.088905e-02 -3.633229e-02 -1.247207e-01
      vertex  -2.368420e-02 -7.114841e-02 -1.595368e-01
      vertex  -6.250000e-02 -6.075618e-02 -1.491445e-01
    endloop
  endfacet
  facet normal  1.000000e+00  0.000000e+00  0.000000e+00
    outer loop
      vertex   6.250000e-02  1.033367e-01  7.963838e-02
      vertex   6.250000e-02  1.105286e-01  2.214022e-02
      vertex   6.250000e-02  1.429837e-01  5.459532e-02
    endloop
  endfacet
  facet normal -1.000000e+00  0.000000e+00  0.000000e+00
    outer loop
      vertex  -6.250000e-02 -2.175179e-02 -1.101401e-01
      vertex  -6.250000e-02 -7.969281e-02 -1.085524e-01
      vertex  -6.250000e-02 -4.325796e-02 -6.858400e-02
    endloop
  endfacet
  facet normal -3.678534e-07 -7.071068e-01  7.071068e-01
    outer loop
      vertex  -6.250000e-02 -4.773316e-02  4.065520e-02
      vertex  -6.250000e-02 -7.699453e-02  1.139382e-02
      vertex  -2.808576e-02 -6.044180e-02  2.794658e-02
    endloop
  endfacet
  facet normal  2.551423e-08 -7.071067e-01  7.071069e-01
    outer loop
      vertex  -1.872488e-02  4.310187e-02  1.314902e-01
      vertex  -2.311605e-02  7.813070e-03  9.620144e-02
      vertex   2.467426e-02  2.450171e-02  1.128901e-01
    endloop
  endfacet
  facet normal  0.000000e+00  7.071068e-01 -7.071068e-01
    outer loop
      vertex   2.465029e-02  1.626872e-01  7.429887e-02
      vertex   6.250000e-02  1.892063e-01  1.008179e-01
      vertex   6.250000e-02  1.429837e-01  5.459532e-02
    endloop
  endfacet
  facet normal  1.000000e+00  0.000000e+00  0.000000e+00
    outer loop
      vertex   6.250000e-02  2.433909e-02  5.662324e-02
      vertex   6.250000e-02  4.344160e-02  1.537158e-02
      vertex   6.250000e-02  7.339310e-02  5.001824e-02
    endloop
  endfacet
  facet normal  4.464252e-07  7.071068e-01 -7.071067e-01
    outer loop
      vertex   2.929681e-02  1.959708e-01  1.075824e-01
      vertex   2.465029e-02  1.626872e-01  7.429887e-02
      vertex  -1.543712e-02  1.830898e-01  9.470139e-02
    endloop
  endfacet
  facet normal  4.252849e-07  7.071069e-01 -7.071066e-01
    outer loop
      vertex   3.417969e-03  2.209709e-01  1.325825e-01
      vertex   2.929681e-02  1.959708e-01  1.075824e-01
      vertex  -1.543712e-02  1.830898e-01  9.470139e-02
    endloop
  endfacet
  facet normal  1.000000e+00  0.000000e+00  0.000000e+00
    outer loop
      vertex   6.250000e-02 -5.606272e-02  3.232563e-02
      vertex   6.250000e-02 -4.451000e-02 -1.498991e-02
      vertex   6.250000e-02 -1.102588e-02  2.229514e-02
    endloop
  endfacet
  facet normal  0.000000e+00 -7.071069e-01  7.071066e-01
    outer loop
      vertex   6.250000e-02 -2.209709e-01 -1.325825e-01
      vertex   1.834124e-02 -1.918106e-01 -1.034222e-01
      vertex  -5.371094e-03 -2.209709e-01 -1.325825e-01
    endloop
  endfacet
  facet normal -1.184009e-07 -7.071068e-01  7.071068e-01
    outer loop
      vertex  -6.250000e-02  3.107400e-02  1.194624e-01
      vertex  -1.872488e-02  4.310187e-02  1.314902e-01
      vertex  -6.250000e-02  6.283857e-02  1.512269e-01
    endloop
  endfacet
  facet normal -2.920301e-07 -7.071067e-01  7.071069e-01
    outer loop
      vertex  -6.250000e-02 -4.773316e-02  4.065520e-02
      vertex  -2.808576e-02 -6.044180e-02  2.794658e-02
      vertex  -2.021971e-02 -3.160703e-02  5.678134e-02
    endloop
  endfacet
  facet normal  0.000000e+00 -7.071070e-01  7.071065e-01
    outer loop
      vertex  -5.371094e-03 -2.209709e-01 -1.325825e-01
      vertex  -2.744588e-02 -1.971408e-01 -1.087525e-01
      vertex  -6.250000e-02 -2.209709e-01 -1.325825e-01
    endloop
  endfacet
  facet normal -1.091337e-07 -7.071068e-01  7.071068e-01
    outer loop
      vertex  -1.645357e-02  1.098413e-01  1.982296e-01
      vertex  -6.250000e-02  1.325825e-01  2.209709e-01
      vertex  -6.250000e-02  9.572527e-02  1.841136e-01
    endloop
  endfacet
  facet normal -6.906034e-08 -7.071068e-01  7.071067e-01
    outer loop
      vertex  -2.021971e-02 -3.160703e-02  5.678134e-02
      vertex   2.393610e-02 -1.526460e-02  7.312377e-02
      vertex  -2.311605e-02  7.813070e-03  9.620144e-02
    endloop
  endfacet
  facet normal  1.000000e+00  0.000000e+00  0.000000e+00
    outer loop
      vertex   6.250000e-02  1.325825e-01  2.209709e-01
      vertex   6.250000e-02  1.167002e-01  2.050886e-01
      vertex   6.250000e-02  1.330531e-01  1.774870e-01
    endloop
  endfacet
  facet normal  1.000000e+00  0.000000e+00  0.000000e+00
    outer loop
      vertex   6.250000e-02  8.314106e-03 -1.733915e-02
      vertex   6.250000e-02 -4.451000e-02 -1.498991e-02
      vertex   6.250000e-02 -2.352641e-02 -5.479570e-02
    endloop
  endfacet
  facet normal  1.984633e-07  7.071066e-01 -7.071069e-01
    outer loop
      vertex  -1.766022e-02  1.428339e-01  5.444556e-02
      vertex  -1.543712e-02  1.830898e-01  9.470139e-02
      vertex   2.465029e-02  1.626872e-01  7.429887e-02
    endloop
  endfacet
  facet normal -1.000000e+00  0.000000e+00  0.000000e+00
    outer loop
      vertex  -6.250000e-02 -9.558822e-02 -6.229560e-02
      vertex  -6.250000e-02 -9.952319e-02 -1.113483e-02
      vertex  -6.250000e-02 -6.169853e-02 -2.411027e-02
    endloop
  endfacet
  facet normal  1.000000e+00  0.000000e+00  0.000000e+00
    outer loop
      vertex   6.250000e-02  1.045350e-01  1.332653e-01
      vertex   6.250000e-02  1.033367e-01  7.963838e-02
      vertex   6.250000e-02  1.401066e-01  1.039277e-01
    endloop
  endfacet
  facet normal  1.000000e+00  0.000000e+00 -0.000000e+00
    outer loop
      vertex   6.250000e-02 -1.357443e-01 -1.635715e-01
      vertex   6.250000e-02 -9.854959e-02 -1.316049e-01
      vertex   6.250000e-02 -1.449873e-01 -1.151989e-01
    endloop
  endfacet
  facet normal  1.000000e+00  0.000000e+00 -0.000000e+00
    outer loop
      vertex   6.250000e-02 -6.002535e-02 -8.946906e-02
      vertex   6.250000e-02 -2.352641e-02 -5.479570e-02
      vertex   6.250000e-02 -7.607321e-02 -4.901871e-02
    endloop
  endfacet
  facet normal -1.000000e+00 -0.000000e+00  0.000000e+00
    outer loop
      vertex  -6.250000e-02 -7.969281e-02 -1.085524e-01
      vertex  -6.250000e-02 -1.246440e-01 -1.536020e-01
      vertex  -6.250000e-02 -1.330613e-01 -9.501185e-02
    endloop
  endfacet
  facet normal -5.475513e-08 -7.071071e-01  7.071065e-01
    outer loop
      vertex  -1.887958e-02 -8.934771e-02 -9.593364e-04
      vertex  -1.659008e-02 -1.243074e-01 -3.591903e-02
      vertex   2.541194e-02 -1.090165e-01 -2.062815e-02
    endloop
  endfacet
  facet normal  2.032501e-07  7.071068e-01 -7.071068e-01
    outer loop
      vertex   6.250000e-02 -3.668450e-03 -9.205680e-02
      vertex   2.454553e-02  1.895085e-02 -6.943752e-02
      vertex   6.250000e-02  3.901518e-02 -4.937318e-02
    endloop
  endfacet
  facet normal  1.000000e+00  0.000000e+00  0.000000e+00
    outer loop
      vertex   6.250000e-02  2.433909e-02  5.662324e-02
      vertex   6.250000e-02 -3.239306e-02  5.599529e-02
      vertex   6.250000e-02 -1.102588e-02  2.229514e-02
    endloop
  endfacet
  facet normal  2.314132e-07  7.071068e-01 -7.071068e-01
    outer loop
      vertex   6.250000e-02 -5.006369e-02 -1.384520e-01
      vertex   2.416427e-02 -2.028327e-02 -1.086716e-01
      vertex   6.250000e-02 -3.668450e-03 -9.205680e-02
    endloop
  endfacet
  facet normal -2.468905e-08  7.071068e-01 -7.071068e-01
    outer loop
      vertex   2.454553e-02  1.895085e-02 -6.943752e-02
      vertex   2.416427e-02 -2.028327e-02 -1.086716e-01
      vertex  -1.812983e-02 -2.133700e-05 -8.840970e-02
    endloop
  endfacet
  facet normal  0.000000e+00  7.071067e-01 -7.071068e-01
    outer loop
      vertex  -1.991609e-02  3.597709e-02 -5.241128e-02
      vertex   2.454553e-02  1.895085e-02 -6.943752e-02
      vertex  -1.812983e-02 -2.133700e-05 -8.840970e-02
    endloop
  endfacet
  facet normal -1.000000e+00  0.000000e+00 -0.000000e+00
    outer loop
      vertex  -6.250000e-02 -1.679262e-01 -1.294760e-01
      vertex  -6.250000e-02 -1.246440e-01 -1.536020e-01
      vertex  -6.250000e-02 -1.791936e-01 -1.743598e-01
    endloop
  endfacet
  facet normal -1.000000e+00  0.000000e+00  0.000000e+00
    outer loop
      vertex  -6.250000e-02 -1.246440e-01 -1.536020e-01
      vertex  -6.250000e-02 -6.075618e-02 -1.491445e-01
      vertex  -6.250000e-02 -1.007444e-01 -1.891328e-01
    endloop
  endfacet
  facet normal -1.000000e+00  0.000000e+00  0.000000e+00
    outer loop
      vertex  -6.250000e-02  1.532292e-01  1.292994e-01
      vertex  -6.250000e-02  1.182427e-01  1.650114e-01
      vertex  -6.250000e-02  1.691808e-01  1.843726e-01
    endloop
  endfacet
  facet normal  1.000000e+00  0.000000e+00  0.000000e+00
    outer loop
      vertex   6.250000e-02  1.429837e-01  5.459532e-02
      vertex   6.250000e-02  1.401066e-01  1.039277e-01
      vertex   6.250000e-02  1.033367e-01  7.963838e-02
    endloop
  endfacet
  facet normal  1.000000e+00  0.000000e+00  0.000000e+00
    outer loop
      vertex   6.250000e-02 -6.002535e-02 -8.946906e-02
      vertex   6.250000e-02 -5.006369e-02 -1.384520e-01
      vertex   6.250000e-02 -3.668450e-03 -9.205680e-02
    endloop
  endfacet
  facet normal  1.000000e+00  0.000000e+00 -0.000000e+00
    outer loop
      vertex   6.250000e-02 -1.449873e-01 -1.151989e-01
      vertex   6.250000e-02 -1.082265e-01 -8.250062e-02
      vertex   6.250000e-02 -1.528022e-01 -6.441386e-02
    endloop
  endfacet
  facet normal  1.000000e+00  0.000000e+00 -0.000000e+00
    outer loop
      vertex   6.250000e-02  8.314106e-03 -1.733915e-02
      vertex   6.250000e-02  4.344160e-02  1.537158e-02
      vertex   6.250000e-02 -1.102588e-02  2.229514e-02
    endloop
  endfacet
  facet normal  1.000000e+00  0.000000e+00 -0.000000e+00
    outer loop
      vertex   6.250000e-02  3.901518e-02 -4.937318e-02
      vertex   6.250000e-02  6.672284e-02 -2.166551e-02
      vertex   6.250000e-02  8.314106e-03 -1.733915e-02
    endloop
  endfacet
  facet normal -5.071328e-08  7.071065e-01 -7.071070e-01
    outer loop
      vertex  -2.368420e-02 -7.114841e-02 -1.595368e-01
      vertex  -1.319586e-02 -1.049695e-01 -1.933579e-01
      vertex  -6.250000e-02 -1.007444e-01 -1.891328e-01
    endloop
  endfacet
  facet normal -1.000000e+00  0.000000e+00 -0.000000e+00
    outer loop
      vertex  -6.250000e-02 -4.773316e-02  4.065520e-02
      vertex  -6.250000e-02 -2.486482e-02  2.044065e-02
      vertex  -6.250000e-02 -7.699453e-02  1.139382e-02
    endloop
  endfacet
  facet normal  1.000000e+00 -0.000000e+00  0.000000e+00
    outer loop
      vertex   6.250000e-02 -4.451000e-02 -1.498991e-02
      vertex   6.250000e-02  8.314106e-03 -1.733915e-02
      vertex   6.250000e-02 -1.102588e-02  2.229514e-02
    endloop
  endfacet
  facet normal  1.000000e+00  0.000000e+00  0.000000e+00
    outer loop
      vertex   6.250000e-02  1.033367e-01  7.963838e-02
      vertex   6.250000e-02  5.975962e-02  9.422800e-02
      vertex   6.250000e-02  7.339310e-02  5.001824e-02
    endloop
  endfacet
  facet normal -1.946305e-07  7.071068e-01 -7.071068e-01
    outer loop
      vertex   2.042378e-02  8.495531e-02 -3.433055e-03
      vertex  -2.240492e-02  6.703891e-02 -2.134945e-02
      vertex  -1.902574e-02  1.030160e-01  1.462763e-02
    endloop
  endfacet
  facet normal  2.756371e-07  7.071068e-01 -7.071068e-01
    outer loop
      vertex   6.250000e-02  6.672284e-02 -2.166551e-02
      vertex   2.107237e-02  5.273439e-02 -3.565397e-02
      vertex   2.042378e-02  8.495531e-02 -3.433055e-03
    endloop
  endfacet
  facet normal  1.000000e+00  0.000000e+00  0.000000e+00
    outer loop
      vertex   6.250000e-02 -5.606272e-02  3.232563e-02
      vertex   6.250000e-02 -9.752172e-02 -9.133369e-03
      vertex   6.250000e-02 -4.451000e-02 -1.498991e-02
    endloop
  endfacet
  facet normal  1.000000e+00  0.000000e+00  0.000000e+00
    outer loop
      vertex   6.250000e-02  1.401066e-01  1.039277e-01
      vertex   6.250000e-02  1.429837e-01  5.459532e-02
      vertex   6.250000e-02  1.892063e-01  1.008179e-01
    endloop
  endfacet
  facet normal -1.000000e+00  0.000000e+00  0.000000e+00
    outer loop
      vertex  -6.250000e-02 -2.486482e-02  2.044065e-02
      vertex  -6.250000e-02  2.939491e-02  8.345393e-03
      vertex  -6.250000e-02 -7.828866e-03 -2.898913e-02
    endloop
  endfacet
  facet normal -8.458256e-08  7.071066e-01 -7.071068e-01
    outer loop
      vertex   2.465029e-02  1.626872e-01  7.429887e-02
      vertex   6.250000e-02  1.429837e-01  5.459532e-02
      vertex   2.778019e-02  1.224885e-01  3.410013e-02
    endloop
  endfacet
  facet normal -1.000000e+00  0.000000e+00  0.000000e+00
    outer loop
      vertex  -6.250000e-02 -7.828866e-03 -2.898913e-02
      vertex  -6.250000e-02  2.939491e-02  8.345393e-03
      vertex  -6.250000e-02  4.833740e-02 -4.005096e-02
    endloop
  endfacet
  facet normal -4.207139e-08 -7.071067e-01  7.071069e-01
    outer loop
      vertex  -1.951018e-02  7.697889e-02  1.653672e-01
      vertex  -6.250000e-02  6.283857e-02  1.512269e-01
      vertex  -1.872488e-02  4.310187e-02  1.314902e-01
    endloop
  endfacet
  facet normal  1.000000e+00 -0.000000e+00  0.000000e+00
    outer loop
      vertex   6.250000e-02 -9.854959e-02 -1.316049e-01
      vertex   6.250000e-02 -5.006369e-02 -1.384520e-01
      vertex   6.250000e-02 -6.002535e-02 -8.946906e-02
    endloop
  endfacet
  facet normal  1.000000e+00  0.000000e+00 -0.000000e+00
    outer loop
      vertex   6.250000e-02 -9.854959e-02 -1.316049e-01
      vertex   6.250000e-02 -6.002535e-02 -8.946906e-02
      vertex   6.250000e-02 -1.082265e-01 -8.250062e-02
    endloop
  endfacet
  facet normal  1.402344e-07 -7.071067e-01  7.071069e-01
    outer loop
      vertex  -2.021971e-02 -3.160703e-02  5.678134e-02
      vertex  -2.808576e-02 -6.044180e-02  2.794658e-02
      vertex   2.227917e-02 -6.238019e-02  2.600817e-02
    endloop
  endfacet
  facet normal -1.000000e+00  0.000000e+00 -0.000000e+00
    outer loop
      vertex  -6.250000e-02  1.325825e-01  2.209709e-01
      vertex  -6.250000e-02  1.691808e-01  1.843726e-01
      vertex  -6.250000e-02  1.182427e-01  1.650114e-01
    endloop
  endfacet
  facet normal  1.563928e-07  7.071068e-01 -7.071068e-01
    outer loop
      vertex   6.250000e-02 -1.325825e-01 -2.209709e-01
      vertex   2.679775e-02 -1.094504e-01 -1.978387e-01
      vertex   6.250000e-02 -9.572527e-02 -1.841136e-01
    endloop
  endfacet
  facet normal  1.000000e+00  0.000000e+00  0.000000e+00
    outer loop
      vertex   6.250000e-02  1.167002e-01  2.050886e-01
      vertex   6.250000e-02  8.270770e-02  1.710961e-01
      vertex   6.250000e-02  1.330531e-01  1.774870e-01
    endloop
  endfacet
  facet normal -1.000000e+00  0.000000e+00 -0.000000e+00
    outer loop
      vertex  -6.250000e-02 -6.169853e-02 -2.411027e-02
      vertex  -6.250000e-02 -4.325796e-02 -6.858400e-02
      vertex  -6.250000e-02 -9.558822e-02 -6.229560e-02
    endloop
  endfacet
  facet normal  0.000000e+00  7.071069e-01 -7.071066e-01
    outer loop
      vertex   2.042378e-02  8.495531e-02 -3.433055e-03
      vertex  -1.902574e-02  1.030160e-01  1.462763e-02
      vertex   2.778019e-02  1.224885e-01  3.410013e-02
    endloop
  endfacet
  facet normal  1.000000e+00  0.000000e+00 -0.000000e+00
    outer loop
      vertex   6.250000e-02  2.433909e-02  5.662324e-02
      vertex   6.250000e-02  5.975962e-02  9.422800e-02
      vertex   6.250000e-02  7.985636e-03  9.637399e-02
    endloop
  endfacet
  facet normal -5.599683e-08 -7.071068e-01  7.071067e-01
    outer loop
      vertex  -1.951018e-02  7.697889e-02  1.653672e-01
      vertex  -1.645357e-02  1.098413e-01  1.982296e-01
      vertex  -6.250000e-02  9.572527e-02  1.841136e-01
    endloop
  endfacet
  facet normal  1.000000e+00  0.000000e+00  0.000000e+00
    outer loop
      vertex   6.250000e-02  2.433909e-02  5.662324e-02
      vertex   6.250000e-02  7.985636e-03  9.637399e-02
      vertex   6.250000e-02 -3.239306e-02  5.599529e-02
    endloop
  endfacet
  facet normal -2.512278e-07  7.071068e-01 -7.071068e-01
    outer loop
      vertex  -6.250000e-02  4.833740e-02 -4.005096e-02
      vertex  -1.991609e-02  3.597709e-02 -5.241128e-02
      vertex  -6.250000e-02  2.140656e-02 -6.698179e-02
    endloop
  endfacet
  facet normal -5.712640e-08  7.071068e-01 -7.071068e-01
    outer loop
      vertex  -1.902574e-02  1.030160e-01  1.462763e-02
      vertex  -6.250000e-02  8.286408e-02 -5.524279e-03
      vertex  -6.250000e-02  1.242961e-01  3.590775e-02
    endloop
  endfacet
  facet normal -1.000000e+00  0.000000e+00  0.000000e+00
    outer loop
      vertex  -6.250000e-02  1.981833e-01  1.553701e-01
      vertex  -6.250000e-02  2.209709e-01  1.325825e-01
      vertex  -6.250000e-02  2.069876e-01  1.185992e-01
    endloop
  endfacet
  facet normal -1.000000e+00 -0.000000e+00  0.000000e+00
    outer loop
      vertex  -6.250000e-02  8.286408e-02 -5.524279e-03
      vertex  -6.250000e-02  4.833740e-02 -4.005096e-02
      vertex  -6.250000e-02  2.939491e-02  8.345393e-03
    endloop
  endfacet
  facet normal  1.000000e+00 -0.000000e+00  0.000000e+00
    outer loop
      vertex   6.250000e-02  8.314106e-03 -1.733915e-02
      vertex   6.250000e-02  6.672284e-02 -2.166551e-02
      vertex   6.250000e-02  4.344160e-02  1.537158e-02
    endloop
  endfacet
  facet normal  1.000000e+00 -0.000000e+00  0.000000e+00
    outer loop
      vertex   6.250000e-02 -1.357443e-01 -1.635715e-01
      vertex   6.250000e-02 -9.572527e-02 -1.841136e-01
      vertex   6.250000e-02 -9.854959e-02 -1.316049e-01
    endloop
  endfacet
  facet normal -2.582758e-07 -7.071070e-01  7.071066e-01
    outer loop
      vertex   2.290296e-02  6.090976e-02  1.492981e-01
      vertex   2.342770e-02  9.828438e-02  1.866728e-01
      vertex  -1.951018e-02  7.697889e-02  1.653672e-01
    endloop
  endfacet
  facet normal  1.963467e-07  7.071066e-01 -7.071069e-01
    outer loop
      vertex   2.416427e-02 -2.028327e-02 -1.086716e-01
      vertex   1.352365e-02 -5.199052e-02 -1.403789e-01
      vertex  -2.088905e-02 -3.633229e-02 -1.247207e-01
    endloop
  endfacet
  facet normal -1.000000e+00  0.000000e+00  0.000000e+00
    outer loop
      vertex  -6.250000e-02 -1.767875e-01 -8.839913e-02
      vertex  -6.250000e-02 -1.330613e-01 -9.501185e-02
      vertex  -6.250000e-02 -1.679262e-01 -1.294760e-01
    endloop
  endfacet
  facet normal  1.000000e+00  0.000000e+00  0.000000e+00
    outer loop
      vertex   6.250000e-02 -1.082265e-01 -8.250062e-02
      vertex   6.250000e-02 -1.449873e-01 -1.151989e-01
      vertex   6.250000e-02 -9.854959e-02 -1.316049e-01
    endloop
  endfacet
  facet normal  1.000000e+00 -0.000000e+00  0.000000e+00
    outer loop
      vertex   6.250000e-02 -5.606272e-02  3.232563e-02
      vertex   6.250000e-02 -1.102588e-02  2.229514e-02
      vertex   6.250000e-02 -3.239306e-02  5.599529e-02
    endloop
  endfacet
  facet normal -3.152972e-07 -7.071068e-01  7.071068e-01
    outer loop
      vertex  -6.250000e-02  1.242961e-02  1.008180e-01
      vertex  -2.311605e-02  7.813070e-03  9.620144e-02
      vertex  -6.250000e-02  3.107400e-02  1.194624e-01
    endloop
  endfacet
  facet normal -1.000000e+00  0.000000e+00  0.000000e+00
    outer loop
      vertex  -6.250000e-02 -6.169853e-02 -2.411027e-02
      vertex  -6.250000e-02 -7.828866e-03 -2.898913e-02
      vertex  -6.250000e-02 -4.325796e-02 -6.858400e-02
    endloop
  endfacet
  facet normal -1.000000e+00  0.000000e+00  0.000000e+00
    outer loop
      vertex  -6.250000e-02  5.795034e-02  8.667683e-02
      vertex  -6.250000e-02  3.107400e-02  1.194624e-01
      vertex  -6.250000e-02  9.140236e-02  1.225746e-01
    endloop
  endfacet
  facet normal -3.325345e-07  7.071068e-01 -7.071068e-01
    outer loop
      vertex  -6.250000e-02  2.069876e-01  1.185992e-01
      vertex  -1.543712e-02  1.830898e-01  9.470139e-02
      vertex  -6.250000e-02  1.649081e-01  7.651977e-02
    endloop
  endfacet
  facet normal  1.000000e+00  0.000000e+00  0.000000e+00
    outer loop
      vertex   6.250000e-02 -1.325825e-01 -2.209709e-01
      vertex   6.250000e-02 -1.357443e-01 -1.635715e-01
      vertex   6.250000e-02 -1.753093e-01 -1.782441e-01
    endloop
  endfacet
  facet normal  4.958298e-07 -7.071067e-01  7.071068e-01
    outer loop
      vertex   6.250000e-02  8.270770e-02  1.710961e-01
      vertex   6.250000e-02  1.167002e-01  2.050886e-01
      vertex   2.342770e-02  9.828438e-02  1.866728e-01
    endloop
  endfacet
  facet normal -1.000000e+00  0.000000e+00  0.000000e+00
    outer loop
      vertex  -6.250000e-02 -1.679262e-01 -1.294760e-01
      vertex  -6.250000e-02 -1.330613e-01 -9.501185e-02
      vertex  -6.250000e-02 -1.246440e-01 -1.536020e-01
    endloop
  endfacet
  facet normal -1.000000e+00  0.000000e+00  0.000000e+00
    outer loop
      vertex  -6.250000e-02  1.141683e-01  8.211836e-02
      vertex  -6.250000e-02  9.140236e-02  1.225746e-01
      vertex  -6.250000e-02  1.532292e-01  1.292994e-01
    endloop
  endfacet
  facet normal  3.977090e-07  7.071069e-01 -7.071066e-01
    outer loop
      vertex  -2.368420e-02 -7.114841e-02 -1.595368e-01
      vertex  -2.088905e-02 -3.633229e-02 -1.247207e-01
      vertex   1.352365e-02 -5.199052e-02 -1.403789e-01
    endloop
  endfacet
  facet normal -1.000000e+00  0.000000e+00  0.000000e+00
    outer loop
      vertex  -6.250000e-02 -9.558822e-02 -6.229560e-02
      vertex  -6.250000e-02 -4.325796e-02 -6.858400e-02
      vertex  -6.250000e-02 -7.969281e-02 -1.085524e-01
    endloop
  endfacet
  facet normal  2.694028e-07  7.071066e-01 -7.071070e-01
    outer loop
      vertex  -2.368420e-02 -7.114841e-02 -1.595368e-01
      vertex   2.012982e-02 -8.133385e-02 -1.697222e-01
      vertex  -1.319586e-02 -1.049695e-01 -1.933579e-01
    endloop
  endfacet
  facet normal  1.000000e+00  0.000000e+00  0.000000e+00
    outer loop
      vertex   6.250000e-02 -1.237782e-01 -3.538984e-02
      vertex   6.250000e-02 -1.082265e-01 -8.250062e-02
      vertex   6.250000e-02 -7.607321e-02 -4.901871e-02
    endloop
  endfacet
  facet normal -1.000000e+00  0.000000e+00  0.000000e+00
    outer loop
      vertex  -6.250000e-02 -7.828866e-03 -2.898913e-02
      vertex  -6.250000e-02 -6.169853e-02 -2.411027e-02
      vertex  -6.250000e-02 -2.486482e-02  2.044065e-02
    endloop
  endfacet
  facet normal  3.171853e-07 -7.071068e-01  7.071067e-01
    outer loop
      vertex   2.393610e-02 -1.526460e-02  7.312377e-02
      vertex   6.250000e-02 -3.239306e-02  5.599529e-02
      vertex   6.250000e-02  7.985636e-03  9.637399e-02
    endloop
  endfacet
  facet normal -3.767294e-07 -7.071068e-01  7.071068e-01
    outer loop
      vertex  -2.808576e-02 -6.044180e-02  2.794658e-02
      vertex  -6.250000e-02 -7.699453e-02  1.139382e-02
      vertex  -1.887958e-02 -8.934771e-02 -9.593364e-04
    endloop
  endfacet
  facet normal  1.000000e+00  0.000000e+00  0.000000e+00
    outer loop
      vertex   6.250000e-02  4.344160e-02  1.537158e-02
      vertex   6.250000e-02  1.105286e-01  2.214022e-02
      vertex   6.250000e-02  7.339310e-02  5.001824e-02
    endloop
  endfacet
  facet normal -2.714808e-07 -7.071068e-01  7.071068e-01
    outer loop
      vertex  -1.972843e-02 -1.626967e-01 -7.430835e-02
      vertex  -6.250000e-02 -1.767875e-01 -8.839913e-02
      vertex  -2.744588e-02 -1.971408e-01 -1.087525e-01
    endloop
  endfacet
  facet normal  1.000000e+00  0.000000e+00  0.000000e+00
    outer loop
      vertex   6.250000e-02 -1.357443e-01 -1.635715e-01
      vertex   6.250000e-02 -1.449873e-01 -1.151989e-01
      vertex   6.250000e-02 -1.740416e-01 -1.403053e-01
    endloop
  endfacet
  facet normal  2.958392e-07 -7.071066e-01 -7.071070e-01
    outer loop
      vertex   1.779521e-02 -1.650401e-01 -1.885132e-01
      vertex   2.340397e-02 -1.967391e-01 -1.568142e-01
      vertex  -2.139080e-02 -1.916249e-01 -1.619285e-01
    endloop
  endfacet
  facet normal  4.094390e-07  7.071060e-01  7.071076e-01
    outer loop
      vertex  -2.784113e-02  1.920628e-01  1.614907e-01
      vertex  -2.364069e-02  1.605776e-01  1.929758e-01
      vertex   2.337682e-02  1.919982e-01  1.615551e-01
    endloop
  endfacet
  facet normal  3.405026e-08 -7.071070e-01  7.071066e-01
    outer loop
      vertex  -5.371094e-03 -2.209709e-01 -1.325825e-01
      vertex   1.834124e-02 -1.918106e-01 -1.034222e-01
      vertex  -2.744588e-02 -1.971408e-01 -1.087525e-01
    endloop
  endfacet
  facet normal -1.000000e+00  0.000000e+00 -0.000000e+00
    outer loop
      vertex  -6.250000e-02  1.182427e-01  1.650114e-01
      vertex  -6.250000e-02  1.532292e-01  1.292994e-01
      vertex  -6.250000e-02  9.140236e-02  1.225746e-01
    endloop
  endfacet
  facet normal -1.000000e+00  0.000000e+00  0.000000e+00
    outer loop
      vertex  -6.250000e-02 -7.969281e-02 -1.085524e-01
      vertex  -6.250000e-02 -1.330613e-01 -9.501185e-02
      vertex  -6.250000e-02 -9.558822e-02 -6.229560e-02
    endloop
  endfacet
  facet normal -1.000000e+00 -0.000000e+00  0.000000e+00
    outer loop
      vertex  -6.250000e-02  1.981833e-01  1.553701e-01
      vertex  -6.250000e-02  1.532292e-01  1.292994e-01
      vertex  -6.250000e-02  1.691808e-01  1.843726e-01
    endloop
  endfacet
  facet normal  0.000000e+00  7.071067e-01 -7.071069e-01
    outer loop
      vertex   2.679775e-02 -1.094504e-01 -1.978387e-01
      vertex   6.250000e-02 -1.325825e-01 -2.209709e-01
      vertex   1.074219e-02 -1.325825e-01 -2.209709e-01
    endloop
  endfacet
  facet normal  2.578578e-07 -7.071068e-01  7.071069e-01
    outer loop
      vertex   6.250000e-02  7.985636e-03  9.637399e-02
      vertex   2.467426e-02  2.450171e-02  1.128901e-01
      vertex   2.393610e-02 -1.526460e-02  7.312377e-02
    endloop
  endfacet
  facet normal  1.000000e+00  0.000000e+00  0.000000e+00
    outer loop
      vertex   6.250000e-02 -6.002535e-02 -8.946906e-02
      vertex   6.250000e-02 -7.607321e-02 -4.901871e-02
      vertex   6.250000e-02 -1.082265e-01 -8.250062e-02
    endloop
  endfacet
  facet normal  0.000000e+00 -7.071068e-01  7.071068e-01
    outer loop
      vertex  -6.250000e-02  9.572527e-02  1.841136e-01
      vertex  -6.250000e-02  6.283857e-02  1.512269e-01
      vertex  -1.951018e-02  7.697889e-02  1.653672e-01
    endloop
  endfacet
  facet normal -1.000000e+00  0.000000e+00  0.000000e+00
    outer loop
      vertex  -6.250000e-02  2.069876e-01  1.185992e-01
      vertex  -6.250000e-02  1.532292e-01  1.292994e-01
      vertex  -6.250000e-02  1.981833e-01  1.553701e-01
    endloop
  endfacet
  facet normal  0.000000e+00  7.071066e-01 -7.071069e-01
    outer loop
      vertex   6.250000e-02  2.209709e-01  1.325825e-01
      vertex   2.929681e-02  1.959708e-01  1.075824e-01
      vertex   3.417969e-03  2.209709e-01  1.325825e-01
    endloop
  endfacet
  facet normal  0.000000e+00  7.071066e-01 -7.071069e-01
    outer loop
      vertex  -3.076172e-02 -1.325825e-01 -2.209709e-01
      vertex  -1.319586e-02 -1.049695e-01 -1.933579e-01
      vertex   1.074219e-02 -1.325825e-01 -2.209709e-01
    endloop
  endfacet
  facet normal -5.038224e-07  7.071069e-01 -7.071067e-01
    outer loop
      vertex  -6.250000e-02 -6.075618e-02 -1.491445e-01
      vertex  -2.368420e-02 -7.114841e-02 -1.595368e-01
      vertex  -6.250000e-02 -1.007444e-01 -1.891328e-01
    endloop
  endfacet
  facet normal  2.435584e-07  7.071067e-01 -7.071068e-01
    outer loop
      vertex   6.250000e-02  3.901518e-02 -4.937318e-02
      vertex   2.454553e-02  1.895085e-02 -6.943752e-02
      vertex   2.107237e-02  5.273439e-02 -3.565397e-02
    endloop
  endfacet
  facet normal -1.267489e-07  7.071068e-01 -7.071067e-01
    outer loop
      vertex   6.250000e-02  1.892063e-01  1.008179e-01
      vertex   2.465029e-02  1.626872e-01  7.429887e-02
      vertex   2.929681e-02  1.959708e-01  1.075824e-01
    endloop
  endfacet
  facet normal -1.000000e+00  0.000000e+00  0.000000e+00
    outer loop
      vertex  -6.250000e-02  2.079114e-02  5.662876e-02
      vertex  -6.250000e-02  7.144258e-02  4.417114e-02
      vertex  -6.250000e-02  2.939491e-02  8.345393e-03
    endloop
  endfacet
  facet normal -1.000000e+00  0.000000e+00  0.000000e+00
    outer loop
      vertex  -6.250000e-02  7.144258e-02  4.417114e-02
      vertex  -6.250000e-02  2.079114e-02  5.662876e-02
      vertex  -6.250000e-02  5.795034e-02  8.667683e-02
    endloop
  endfacet
  facet normal  1.000000e+00  0.000000e+00 -0.000000e+00
    outer loop
      vertex   6.250000e-02  1.892063e-01  1.008179e-01
      vertex   6.250000e-02  2.209709e-01  1.325825e-01
      vertex   6.250000e-02  1.624448e-01  1.415396e-01
    endloop
  endfacet
  facet normal  1.563285e-07 -7.071068e-01  7.071068e-01
    outer loop
      vertex   6.250000e-02 -1.528022e-01 -6.441386e-02
      vertex   6.250000e-02 -1.237782e-01 -3.538984e-02
      vertex   2.876610e-02 -1.518100e-01 -6.342167e-02
    endloop
  endfacet
  facet normal -2.226374e-07 -7.071068e-01  7.071068e-01
    outer loop
      vertex  -1.659008e-02 -1.243074e-01 -3.591903e-02
      vertex   2.876610e-02 -1.518100e-01 -6.342167e-02
      vertex   2.541194e-02 -1.090165e-01 -2.062815e-02
    endloop
  endfacet
  facet normal  2.852450e-08  7.071067e-01 -7.071068e-01
    outer loop
      vertex  -1.991609e-02  3.597709e-02 -5.241128e-02
      vertex   2.107237e-02  5.273439e-02 -3.565397e-02
      vertex   2.454553e-02  1.895085e-02 -6.943752e-02
    endloop
  endfacet
  facet normal  4.507329e-08 -7.071067e-01  7.071069e-01
    outer loop
      vertex   1.834124e-02 -1.918106e-01 -1.034222e-01
      vertex   2.876610e-02 -1.518100e-01 -6.342167e-02
      vertex  -1.972843e-02 -1.626967e-01 -7.430835e-02
    endloop
  endfacet
  facet normal  1.000000e+00  0.000000e+00 -0.000000e+00
    outer loop
      vertex   6.250000e-02 -7.607321e-02 -4.901871e-02
      vertex   6.250000e-02 -4.451000e-02 -1.498991e-02
      vertex   6.250000e-02 -9.752172e-02 -9.133369e-03
    endloop
  endfacet
  facet normal -2.070373e-07  7.071068e-01 -7.071068e-01
    outer loop
      vertex   2.107237e-02  5.273439e-02 -3.565397e-02
      vertex  -2.240492e-02  6.703891e-02 -2.134945e-02
      vertex   2.042378e-02  8.495531e-02 -3.433055e-03
    endloop
  endfacet
  facet normal -1.252098e-07  7.071069e-01 -7.071066e-01
    outer loop
      vertex  -1.991609e-02  3.597709e-02 -5.241128e-02
      vertex  -2.240492e-02  6.703891e-02 -2.134945e-02
      vertex   2.107237e-02  5.273439e-02 -3.565397e-02
    endloop
  endfacet
  facet normal  3.969414e-07  7.071069e-01 -7.071066e-01
    outer loop
      vertex  -2.368420e-02 -7.114841e-02 -1.595368e-01
      vertex   1.352365e-02 -5.199052e-02 -1.403789e-01
      vertex   2.012982e-02 -8.133385e-02 -1.697222e-01
    endloop
  endfacet
  facet normal  2.903051e-07 -7.071067e-01  7.071069e-01
    outer loop
      vertex   6.250000e-02  4.546767e-02  1.338560e-01
      vertex   2.467426e-02  2.450171e-02  1.128901e-01
      vertex   6.250000e-02  7.985636e-03  9.637399e-02
    endloop
  endfacet
  facet normal  1.000000e+00  0.000000e+00  0.000000e+00
    outer loop
      vertex   6.250000e-02  4.546767e-02  1.338560e-01
      vertex   6.250000e-02  7.985636e-03  9.637399e-02
      vertex   6.250000e-02  5.975962e-02  9.422800e-02
    endloop
  endfacet
  facet normal  1.344243e-07  7.071068e-01 -7.071068e-01
    outer loop
      vertex  -1.766022e-02  1.428339e-01  5.444556e-02
      vertex   2.778019e-02  1.224885e-01  3.410013e-02
      vertex  -1.902574e-02  1.030160e-01  1.462763e-02
    endloop
  endfacet
  facet normal -7.110904e-07 -7.071068e-01 -7.071068e-01
    outer loop
      vertex   6.250000e-02 -1.753093e-01 -1.782441e-01
      vertex   1.779521e-02 -1.650401e-01 -1.885132e-01
      vertex   6.250000e-02 -1.325825e-01 -2.209709e-01
    endloop
  endfacet
  facet normal  1.000000e+00  0.000000e+00 -0.000000e+00
    outer loop
      vertex   6.250000e-02  5.975962e-02  9.422800e-02
      vertex   6.250000e-02  1.045350e-01  1.332653e-01
      vertex   6.250000e-02  4.546767e-02  1.338560e-01
    endloop
  endfacet
  facet normal  1.000000e+00  0.000000e+00  0.000000e+00
    outer loop
      vertex   6.250000e-02  1.325825e-01  2.209709e-01
      vertex   6.250000e-02  1.330531e-01  1.774870e-01
      vertex   6.250000e-02  1.805746e-01  1.729788e-01
    endloop
  endfacet
  facet normal  1.000000e+00  0.000000e+00  0.000000e+00
    outer loop
      vertex   6.250000e-02 -1.357443e-01 -1.635715e-01
      vertex   6.250000e-02 -1.325825e-01 -2.209709e-01
      vertex   6.250000e-02 -9.572527e-02 -1.841136e-01
    endloop
  endfacet
  facet normal -2.392576e-07 -7.071071e-01  7.071065e-01
    outer loop
      vertex  -1.659008e-02 -1.243074e-01 -3.591903e-02
      vertex  -1.887958e-02 -8.934771e-02 -9.593364e-04
      vertex  -6.250000e-02 -9.952319e-02 -1.113483e-02
    endloop
  endfacet
  facet normal  1.000000e+00  0.000000e+00  0.000000e+00
    outer loop
      vertex   6.250000e-02  1.330531e-01  1.774870e-01
      vertex   6.250000e-02  1.624448e-01  1.415396e-01
      vertex   6.250000e-02  1.805746e-01  1.729788e-01
    endloop
  endfacet
  facet normal  1.000000e+00  0.000000e+00  0.000000e+00
    outer loop
      vertex   6.250000e-02  1.330531e-01  1.774870e-01
      vertex   6.250000e-02  1.045350e-01  1.332653e-01
      vertex   6.250000e-02  1.624448e-01  1.415396e-01
    endloop
  endfacet
  facet normal  1.232470e-07 -7.071067e-01  7.071069e-01
    outer loop
      vertex  -1.659008e-02 -1.243074e-01 -3.591903e-02
      vertex  -6.250000e-02 -9.952319e-02 -1.113483e-02
      vertex  -6.250000e-02 -1.395310e-01 -5.114266e-02
    endloop
  endfacet
  facet normal  1.000000e+00  0.000000e+00  0.000000e+00
    outer loop
      vertex   6.250000e-02  8.270770e-02  1.710961e-01
      vertex   6.250000e-02  4.546767e-02  1.338560e-01
      vertex   6.250000e-02  1.045350e-01  1.332653e-01
    endloop
  endfacet
  facet normal  1.000000e+00  0.000000e+00  0.000000e+00
    outer loop
      vertex   6.250000e-02 -1.740416e-01 -1.403053e-01
      vertex   6.250000e-02 -1.934871e-01 -1.050987e-01
      vertex   6.250000e-02 -2.209709e-01 -1.325825e-01
    endloop
  endfacet
  facet normal  1.000000e+00  0.000000e+00  0.000000e+00
    outer loop
      vertex   6.250000e-02 -1.934871e-01 -1.050987e-01
      vertex   6.250000e-02 -1.740416e-01 -1.403053e-01
      vertex   6.250000e-02 -1.449873e-01 -1.151989e-01
    endloop
  endfacet
  facet normal  1.116484e-07 -7.071069e-01  7.071066e-01
    outer loop
      vertex   6.250000e-02  8.270770e-02  1.710961e-01
      vertex   2.290296e-02  6.090976e-02  1.492981e-01
      vertex   6.250000e-02  4.546767e-02  1.338560e-01
    endloop
  endfacet
  facet normal  1.000000e+00  0.000000e+00  0.000000e+00
    outer loop
      vertex   6.250000e-02 -1.357443e-01 -1.635715e-01
      vertex   6.250000e-02 -1.740416e-01 -1.403053e-01
      vertex   6.250000e-02 -1.753093e-01 -1.782441e-01
    endloop
  endfacet
  facet normal  2.252196e-08 -7.071066e-01  7.071069e-01
    outer loop
      vertex  -1.972843e-02 -1.626967e-01 -7.430835e-02
      vertex   2.876610e-02 -1.518100e-01 -6.342167e-02
      vertex  -1.659008e-02 -1.243074e-01 -3.591903e-02
    endloop
  endfacet
  facet normal  2.141447e-07 -7.071068e-01  7.071068e-01
    outer loop
      vertex   2.541194e-02 -1.090165e-01 -2.062815e-02
      vertex   2.876610e-02 -1.518100e-01 -6.342167e-02
      vertex   6.250000e-02 -1.237782e-01 -3.538984e-02
    endloop
  endfacet
  facet normal  4.800799e-08 -7.071066e-01  7.071069e-01
    outer loop
      vertex  -1.972843e-02 -1.626967e-01 -7.430835e-02
      vertex  -1.659008e-02 -1.243074e-01 -3.591903e-02
      vertex  -6.250000e-02 -1.395310e-01 -5.114266e-02
    endloop
  endfacet
  facet normal -2.316250e-07 -7.071065e-01  7.071071e-01
    outer loop
      vertex   2.807617e-02  1.325825e-01  2.209709e-01
      vertex  -1.645357e-02  1.098413e-01  1.982296e-01
      vertex   2.342770e-02  9.828438e-02  1.866728e-01
    endloop
  endfacet
  facet normal -1.000000e+00  0.000000e+00  0.000000e+00
    outer loop
      vertex  -6.250000e-02  2.140656e-02 -6.698179e-02
      vertex  -6.250000e-02 -2.175179e-02 -1.101401e-01
      vertex  -6.250000e-02 -4.325796e-02 -6.858400e-02
    endloop
  endfacet
  facet normal -1.000000e+00  0.000000e+00 -0.000000e+00
    outer loop
      vertex  -6.250000e-02 -7.828866e-03 -2.898913e-02
      vertex  -6.250000e-02  2.140656e-02 -6.698179e-02
      vertex  -6.250000e-02 -4.325796e-02 -6.858400e-02
    endloop
  endfacet
  facet normal -1.000000e+00  0.000000e+00  0.000000e+00
    outer loop
      vertex  -6.250000e-02 -1.330613e-01 -9.501185e-02
      vertex  -6.250000e-02 -1.767875e-01 -8.839913e-02
      vertex  -6.250000e-02 -1.395310e-01 -5.114266e-02
    endloop
  endfacet
  facet normal  2.624727e-07 -7.071065e-01  7.071071e-01
    outer loop
      vertex   2.807617e-02  1.325825e-01  2.209709e-01
      vertex   2.342770e-02  9.828438e-02  1.866728e-01
      vertex   6.250000e-02  1.167002e-01  2.050886e-01
    endloop
  endfacet
  facet normal -0.000000e+00  7.071074e-01  7.071062e-01
    outer loop
      vertex  -6.250000e-02  1.325825e-01  2.209709e-01
      vertex  -1.721191e-02  1.325825e-01  2.209709e-01
      vertex  -2.364069e-02  1.605776e-01  1.929758e-01
    endloop
  endfacet
  facet normal  0.000000e+00 -7.071066e-01  7.071069e-01
    outer loop
      vertex  -6.250000e-02  1.325825e-01  2.209709e-01
      vertex  -1.645357e-02  1.098413e-01  1.982296e-01
      vertex  -1.721191e-02  1.325825e-01  2.209709e-01
    endloop
  endfacet
  facet normal  0.000000e+00 -7.071066e-01  7.071069e-01
    outer loop
      vertex  -1.721191e-02  1.325825e-01  2.209709e-01
      vertex  -1.645357e-02  1.098413e-01  1.982296e-01
      vertex   2.807617e-02  1.325825e-01  2.209709e-01
    endloop
  endfacet
  facet normal -3.634612e-07  7.071073e-01  7.071062e-01
    outer loop
      vertex   3.097949e-02  1.594253e-01  1.941281e-01
      vertex  -2.364069e-02  1.605776e-01  1.929758e-01
      vertex  -1.721191e-02  1.325825e-01  2.209709e-01
    endloop
  endfacet
  facet normal  4.506385e-07  7.071060e-01  7.071075e-01
    outer loop
      vertex  -6.250000e-02  1.691808e-01  1.843726e-01
      vertex  -2.364069e-02  1.605776e-01  1.929758e-01
      vertex  -2.784113e-02  1.920628e-01  1.614907e-01
    endloop
  endfacet
  facet normal -3.952278e-07  7.071066e-01  7.071070e-01
    outer loop
      vertex  -2.364069e-02  1.605776e-01  1.929758e-01
      vertex   3.097949e-02  1.594253e-01  1.941281e-01
      vertex   2.337682e-02  1.919982e-01  1.615551e-01
    endloop
  endfacet
  facet normal  8.103398e-07  7.071068e-01  7.071068e-01
    outer loop
      vertex  -6.250000e-02  1.325825e-01  2.209709e-01
      vertex  -2.364069e-02  1.605776e-01  1.929758e-01
      vertex  -6.250000e-02  1.691808e-01  1.843726e-01
    endloop
  endfacet
endsolid vcg
