solid STL generated by MeshLab
  facet normal  0.000000e+00 -0.000000e+00 -1.000000e+00
    outer loop
      vertex  -2.640757e-02  2.967868e-02 -2.500000e-01
      vertex  -2.139080e-02 -2.099852e-02 -2.500000e-01
      vertex  -6.250000e-02 -3.418028e-03 -2.500000e-01
    endloop
  endfacet
  facet normal  2.326918e-06 -3.212327e-07  1.000000e+00
    outer loop
      vertex  -2.784113e-02  2.161775e-02  2.500001e-01
      vertex   2.337682e-02  2.152652e-02  2.499999e-01
      vertex   3.417969e-03  6.250003e-02  2.500000e-01
    endloop
  endfacet
  facet normal  0.000000e+00  0.000000e+00 -1.000000e+00
    outer loop
      vertex  -6.250000e-02  6.250003e-02 -2.500000e-01
      vertex  -2.640757e-02  2.967868e-02 -2.500000e-01
      vertex  -6.250000e-02 -3.418028e-03 -2.500000e-01
    endloop
  endfacet
  facet normal  1.736414e-06  1.718957e-07 -1.000000e+00
    outer loop
      vertex  -2.139080e-02 -2.099852e-02 -2.500000e-01
      vertex  -2.640757e-02  2.967868e-02 -2.500000e-01
      vertex   1.779521e-02  1.659797e-02 -2.499999e-01
    endloop
  endfacet
  facet normal  0.000000e+00  0.000000e+00 -1.000000e+00
    outer loop
      vertex  -6.250000e-02 -3.418028e-03 -2.500000e-01
      vertex  -2.139080e-02 -2.099852e-02 -2.500000e-01
      vertex  -6.250000e-02 -6.250003e-02 -2.500000e-01
    endloop
  endfacet
  facet normal  0.000000e+00  1.739325e-06 -1.000000e+00
    outer loop
      vertex   2.340397e-02 -2.823118e-02 -2.499999e-01
      vertex   6.250000e-02 -6.250003e-02 -2.500000e-01
      vertex  -5.371094e-03 -6.250003e-02 -2.500000e-01
    endloop
  endfacet
  facet normal -0.000000e+00 -0.000000e+00 -1.000000e+00
    outer loop
      vertex  -3.076172e-02  6.250003e-02 -2.500000e-01
      vertex  -2.640757e-02  2.967868e-02 -2.500000e-01
      vertex  -6.250000e-02  6.250003e-02 -2.500000e-01
    endloop
  endfacet
  facet normal -1.000000e+00  0.000000e+00  0.000000e+00
    outer loop
      vertex  -6.250000e-02 -6.250000e-02 -5.004873e-03
      vertex  -6.250000e-02 -6.250001e-02  4.650878e-02
      vertex  -6.250000e-02 -3.203580e-02 -3.128360e-03
    endloop
  endfacet
  facet normal  0.000000e+00 -1.000000e+00 -0.000000e+00
    outer loop
      vertex   6.250000e-02 -6.250000e-02  1.668929e-02
      vertex   2.227917e-02 -6.250000e-02 -2.571890e-02
      vertex   6.250000e-02 -6.250000e-02 -1.678466e-02
    endloop
  endfacet
  facet normal  0.000000e+00 -1.454712e-06  1.000000e+00
    outer loop
      vertex   3.417969e-03  6.250003e-02  2.500000e-01
      vertex   2.337682e-02  2.152652e-02  2.499999e-01
      vertex   6.250000e-02  6.250003e-02  2.500000e-01
    endloop
  endfacet
  facet normal -2.083304e-07  2.195511e-07  1.000000e+00
    outer loop
      vertex   3.097949e-02 -2.453856e-02  2.500000e-01
      vertex   6.250000e-02 -6.250003e-02  2.500000e-01
      vertex   6.250000e-02  5.371019e-03  2.500000e-01
    endloop
  endfacet
  facet normal -2.265167e-06 -4.623878e-07  1.000000e+00
    outer loop
      vertex  -6.250000e-02  6.250003e-02  2.500000e-01
      vertex  -6.250000e-02  3.027348e-02  2.500000e-01
      vertex  -2.784113e-02  2.161775e-02  2.500001e-01
    endloop
  endfacet
  facet normal -1.000000e+00  0.000000e+00 -0.000000e+00
    outer loop
      vertex  -6.250000e-02 -6.250001e-02 -1.875153e-01
      vertex  -6.250000e-02 -2.718841e-02 -2.102951e-01
      vertex  -6.250000e-02 -6.250003e-02 -2.500000e-01
    endloop
  endfacet
  facet normal -3.054283e-07  1.000000e+00  4.975685e-07
    outer loop
      vertex   6.250000e-02  6.250005e-02  2.050781e-01
      vertex   2.929681e-02  6.250004e-02  2.146445e-01
      vertex   6.250000e-02  6.250003e-02  2.500000e-01
    endloop
  endfacet
  facet normal -6.137688e-08  1.000000e+00  3.891722e-07
    outer loop
      vertex  -6.250000e-02  6.249997e-02  1.707153e-01
      vertex  -1.766022e-02  6.249999e-02  1.394976e-01
      vertex  -6.250000e-02  6.250000e-02  1.132812e-01
    endloop
  endfacet
  facet normal  1.000000e+00  0.000000e+00  0.000000e+00
    outer loop
      vertex   6.250000e-02  2.211073e-02 -5.538210e-02
      vertex   6.250000e-02  2.081985e-02 -1.057085e-01
      vertex   6.250000e-02  6.250000e-02 -6.768797e-02
    endloop
  endfacet
  facet normal -1.000000e+00  0.000000e+00  0.000000e+00
    outer loop
      vertex  -6.250000e-02 -3.307046e-02  2.002909e-01
      vertex  -6.250000e-02 -6.249997e-02  1.513671e-01
      vertex  -6.250000e-02 -6.249999e-02  1.978760e-01
    endloop
  endfacet
  facet normal  1.396722e-06  1.000000e+00 -4.958187e-07
    outer loop
      vertex   1.352365e-02  6.250003e-02 -1.360257e-01
      vertex   6.250000e-02  6.249996e-02 -1.333007e-01
      vertex   2.012982e-02  6.250000e-02 -1.775234e-01
    endloop
  endfacet
  facet normal  1.000000e+00  0.000000e+00  0.000000e+00
    outer loop
      vertex   6.250000e-02 -3.141950e-02  2.195850e-01
      vertex   6.250000e-02 -6.250004e-02  1.794664e-01
      vertex   6.250000e-02 -2.031540e-02  1.681502e-01
    endloop
  endfacet
  facet normal -1.000000e+00  0.000000e+00  0.000000e+00
    outer loop
      vertex  -6.250000e-02 -2.204210e-02  1.513045e-01
      vertex  -6.250000e-02  2.266273e-02  1.387956e-01
      vertex  -6.250000e-02 -2.031270e-02  1.022668e-01
    endloop
  endfacet
  facet normal  1.000000e+00  0.000000e+00 -0.000000e+00
    outer loop
      vertex   6.250000e-02 -2.282834e-02  5.724900e-02
      vertex   6.250000e-02  1.652852e-02  8.726500e-02
      vertex   6.250000e-02 -2.437282e-02  1.088857e-01
    endloop
  endfacet
  facet normal  1.000000e+00  0.000000e+00  0.000000e+00
    outer loop
      vertex   6.250000e-02  2.211073e-02 -5.538210e-02
      vertex   6.250000e-02 -2.087386e-02 -4.207279e-02
      vertex   6.250000e-02 -1.913042e-02 -8.845334e-02
    endloop
  endfacet
  facet normal  0.000000e+00  1.000000e+00  0.000000e+00
    outer loop
      vertex  -6.250000e-02  6.250003e-02 -2.049741e-01
      vertex  -3.076172e-02  6.250003e-02 -2.500000e-01
      vertex  -6.250000e-02  6.250003e-02 -2.500000e-01
    endloop
  endfacet
  facet normal  1.262627e-06 -1.429140e-06 -1.000000e+00
    outer loop
      vertex  -2.640757e-02  2.967868e-02 -2.500000e-01
      vertex   1.074219e-02  6.250003e-02 -2.500000e-01
      vertex   1.779521e-02  1.659797e-02 -2.499999e-01
    endloop
  endfacet
  facet normal -2.300930e-06 -1.000000e+00  3.116469e-07
    outer loop
      vertex  -1.645357e-02 -6.249996e-02  2.178390e-01
      vertex  -1.951018e-02 -6.249996e-02  1.713645e-01
      vertex   2.342770e-02 -6.250005e-02  2.014951e-01
    endloop
  endfacet
  facet normal -4.020395e-07  1.000000e+00  5.571914e-08
    outer loop
      vertex   6.250000e-02  6.250003e-02  9.381102e-02
      vertex   2.042378e-02  6.250001e-02  5.764494e-02
      vertex   2.778019e-02  6.250001e-02  1.107249e-01
    endloop
  endfacet
  facet normal -1.524570e-06  0.000000e+00 -1.000000e+00
    outer loop
      vertex   6.250000e-02 -6.250003e-02 -2.500000e-01
      vertex   2.340397e-02 -2.823118e-02 -2.499999e-01
      vertex   6.250000e-02  2.075233e-03 -2.500000e-01
    endloop
  endfacet
  facet normal -1.624669e-06  1.291299e-07 -1.000000e+00
    outer loop
      vertex   2.340397e-02 -2.823118e-02 -2.499999e-01
      vertex   1.779521e-02  1.659797e-02 -2.499999e-01
      vertex   6.250000e-02  2.075233e-03 -2.500000e-01
    endloop
  endfacet
  facet normal  0.000000e+00  0.000000e+00 -1.000000e+00
    outer loop
      vertex  -2.640757e-02  2.967868e-02 -2.500000e-01
      vertex  -3.076172e-02  6.250003e-02 -2.500000e-01
      vertex   1.074219e-02  6.250003e-02 -2.500000e-01
    endloop
  endfacet
  facet normal -1.000000e+00  0.000000e+00  0.000000e+00
    outer loop
      vertex  -6.250000e-02  2.040681e-02 -1.331095e-01
      vertex  -6.250000e-02  6.249996e-02 -9.326164e-02
      vertex  -6.250000e-02  6.249997e-02 -1.484222e-01
    endloop
  endfacet
  facet normal -1.000000e+00  0.000000e+00 -0.000000e+00
    outer loop
      vertex  -6.250000e-02  6.250000e-02  1.132812e-01
      vertex  -6.250000e-02  6.250000e-02  5.468750e-02
      vertex  -6.250000e-02  1.928382e-02  8.175124e-02
    endloop
  endfacet
  facet normal -1.790147e-07 -1.000000e+00 -1.916896e-07
    outer loop
      vertex   1.834124e-02 -6.250003e-02 -2.087611e-01
      vertex   6.250000e-02 -6.250003e-02 -2.500000e-01
      vertex   6.250000e-02 -6.250004e-02 -2.111320e-01
    endloop
  endfacet
  facet normal -5.453142e-07 -1.000000e+00  4.576043e-07
    outer loop
      vertex  -1.951018e-02 -6.249996e-02  1.713645e-01
      vertex  -1.872488e-02 -6.249999e-02  1.234552e-01
      vertex   2.290296e-02 -6.250000e-02  1.486394e-01
    endloop
  endfacet
  facet normal  6.204300e-07 -1.000000e+00 -8.349669e-08
    outer loop
      vertex   2.227917e-02 -6.250000e-02 -2.571890e-02
      vertex  -1.887958e-02 -6.250002e-02 -6.385673e-02
      vertex   2.541194e-02 -6.249999e-02 -9.167261e-02
    endloop
  endfacet
  facet normal  2.421465e-07 -1.000000e+00 -2.296568e-07
    outer loop
      vertex   2.227917e-02 -6.250000e-02 -2.571890e-02
      vertex   6.250000e-02 -6.250000e-02  1.668929e-02
      vertex   2.393610e-02 -6.250001e-02  4.091261e-02
    endloop
  endfacet
  facet normal  0.000000e+00  3.925338e-07  1.000000e+00
    outer loop
      vertex   6.250000e-02 -6.250003e-02  2.500000e-01
      vertex   3.097949e-02 -2.453856e-02  2.500000e-01
      vertex   2.807617e-02 -6.250003e-02  2.500000e-01
    endloop
  endfacet
  facet normal  0.000000e+00  3.925338e-07  1.000000e+00
    outer loop
      vertex   3.097949e-02 -2.453856e-02  2.500000e-01
      vertex  -1.721191e-02 -6.250003e-02  2.500000e-01
      vertex   2.807617e-02 -6.250003e-02  2.500000e-01
    endloop
  endfacet
  facet normal -2.058958e-06  3.633037e-07  1.000000e+00
    outer loop
      vertex  -2.784113e-02  2.161775e-02  2.500001e-01
      vertex  -6.250000e-02  3.027348e-02  2.500000e-01
      vertex  -6.250000e-02 -1.074225e-02  2.500000e-01
    endloop
  endfacet
  facet normal -9.000874e-07  1.000000e+00 -8.155185e-07
    outer loop
      vertex  -1.543712e-02  6.250004e-02  1.964280e-01
      vertex  -1.766022e-02  6.249999e-02  1.394976e-01
      vertex  -6.250000e-02  6.249997e-02  1.707153e-01
    endloop
  endfacet
  facet normal  1.000000e+00  0.000000e+00  0.000000e+00
    outer loop
      vertex   6.250000e-02 -2.356152e-02  7.968571e-03
      vertex   6.250000e-02  1.984850e-02  4.158720e-02
      vertex   6.250000e-02 -2.282834e-02  5.724900e-02
    endloop
  endfacet
  facet normal  1.000000e+00  0.000000e+00  0.000000e+00
    outer loop
      vertex   6.250000e-02 -2.106358e-02 -1.839794e-01
      vertex   6.250000e-02 -6.250000e-02 -1.535949e-01
      vertex   6.250000e-02 -6.250004e-02 -2.111320e-01
    endloop
  endfacet
  facet normal -1.000000e+00  0.000000e+00  0.000000e+00
    outer loop
      vertex  -6.250000e-02  6.250000e-02  1.132812e-01
      vertex  -6.250000e-02  2.266273e-02  1.387956e-01
      vertex  -6.250000e-02  6.249997e-02  1.707153e-01
    endloop
  endfacet
  facet normal  1.000000e+00  0.000000e+00  0.000000e+00
    outer loop
      vertex   6.250000e-02 -6.250001e-02 -1.125488e-01
      vertex   6.250000e-02 -1.913042e-02 -8.845334e-02
      vertex   6.250000e-02 -6.250000e-02 -7.541654e-02
    endloop
  endfacet
  facet normal  1.652296e-07  1.000000e+00  1.164686e-07
    outer loop
      vertex  -1.319586e-02  6.250002e-02 -2.109493e-01
      vertex  -3.076172e-02  6.250003e-02 -2.500000e-01
      vertex  -6.250000e-02  6.250003e-02 -2.049741e-01
    endloop
  endfacet
  facet normal  0.000000e+00  1.457958e-06  1.000000e+00
    outer loop
      vertex  -2.784113e-02  2.161775e-02  2.500001e-01
      vertex   3.417969e-03  6.250003e-02  2.500000e-01
      vertex  -6.250000e-02  6.250003e-02  2.500000e-01
    endloop
  endfacet
  facet normal  0.000000e+00 -0.000000e+00 -1.000000e+00
    outer loop
      vertex  -2.139080e-02 -2.099852e-02 -2.500000e-01
      vertex  -5.371094e-03 -6.250003e-02 -2.500000e-01
      vertex  -6.250000e-02 -6.250003e-02 -2.500000e-01
    endloop
  endfacet
  facet normal -1.250343e-06 -2.608335e-07  1.000000e+00
    outer loop
      vertex   2.337682e-02  2.152652e-02  2.499999e-01
      vertex   6.250000e-02  5.371019e-03  2.500000e-01
      vertex   6.250000e-02  6.250003e-02  2.500000e-01
    endloop
  endfacet
  facet normal  9.742954e-07  1.000000e+00  5.280087e-07
    outer loop
      vertex  -1.812983e-02  6.250001e-02 -6.253018e-02
      vertex   2.416427e-02  6.249998e-02 -9.118485e-02
      vertex  -2.088905e-02  6.250004e-02 -1.138817e-01
    endloop
  endfacet
  facet normal -3.043637e-07 -1.000000e+00  6.474588e-07
    outer loop
      vertex   6.250000e-02 -6.250004e-02 -2.111320e-01
      vertex   6.250000e-02 -6.250000e-02 -1.535949e-01
      vertex   2.876610e-02 -6.249999e-02 -1.521918e-01
    endloop
  endfacet
  facet normal -3.767826e-07 -1.000000e+00  4.012996e-07
    outer loop
      vertex   2.541194e-02 -6.249999e-02 -9.167261e-02
      vertex   6.250000e-02 -6.250001e-02 -1.125488e-01
      vertex   6.250000e-02 -6.250000e-02 -7.541654e-02
    endloop
  endfacet
  facet normal  0.000000e+00  1.000000e+00 -3.767602e-07
    outer loop
      vertex   3.417969e-03  6.250003e-02  2.500000e-01
      vertex  -6.250000e-02  6.250002e-02  2.302246e-01
      vertex  -6.250000e-02  6.250003e-02  2.500000e-01
    endloop
  endfacet
  facet normal -2.134773e-07 -1.000000e+00 -1.055086e-06
    outer loop
      vertex   2.342770e-02 -6.250005e-02  2.014951e-01
      vertex   2.290296e-02 -6.250000e-02  1.486394e-01
      vertex   6.250000e-02 -6.250004e-02  1.794664e-01
    endloop
  endfacet
  facet normal -1.964086e-07 -1.000000e+00 -2.892662e-07
    outer loop
      vertex  -2.021971e-02 -6.250001e-02  1.780093e-02
      vertex  -6.250000e-02 -6.250001e-02  4.650878e-02
      vertex  -6.250000e-02 -6.250000e-02 -5.004873e-03
    endloop
  endfacet
  facet normal  1.000000e+00 -0.000000e+00  0.000000e+00
    outer loop
      vertex   6.250000e-02  2.211073e-02 -5.538210e-02
      vertex   6.250000e-02  6.250000e-02 -6.768797e-02
      vertex   6.250000e-02  6.250000e-02 -7.324209e-03
    endloop
  endfacet
  facet normal -1.482872e-07 -1.000000e+00 -1.200104e-07
    outer loop
      vertex   6.250000e-02 -6.250000e-02 -7.541654e-02
      vertex   2.227917e-02 -6.250000e-02 -2.571890e-02
      vertex   2.541194e-02 -6.249999e-02 -9.167261e-02
    endloop
  endfacet
  facet normal -1.000000e+00  0.000000e+00  0.000000e+00
    outer loop
      vertex  -6.250000e-02 -6.249999e-02 -4.638670e-02
      vertex  -6.250000e-02 -3.203580e-02 -3.128360e-03
      vertex  -6.250000e-02 -2.657891e-02 -6.067598e-02
    endloop
  endfacet
  facet normal -1.000000e+00  0.000000e+00  0.000000e+00
    outer loop
      vertex  -6.250000e-02 -3.418028e-03 -2.500000e-01
      vertex  -6.250000e-02  2.047640e-02 -1.967496e-01
      vertex  -6.250000e-02  6.250003e-02 -2.500000e-01
    endloop
  endfacet
  facet normal -2.762731e-08  1.000000e+00  3.314480e-07
    outer loop
      vertex  -1.766022e-02  6.249999e-02  1.394976e-01
      vertex  -1.902574e-02  6.250001e-02  8.318660e-02
      vertex  -6.250000e-02  6.250000e-02  1.132812e-01
    endloop
  endfacet
  facet normal -1.730196e-07  1.000000e+00  1.999717e-07
    outer loop
      vertex   3.417969e-03  6.250003e-02  2.500000e-01
      vertex  -1.543712e-02  6.250004e-02  1.964280e-01
      vertex  -6.250000e-02  6.250002e-02  2.302246e-01
    endloop
  endfacet
  facet normal -1.000000e+00  0.000000e+00  0.000000e+00
    outer loop
      vertex  -6.250000e-02 -2.204210e-02  1.513045e-01
      vertex  -6.250000e-02 -6.249997e-02  1.513671e-01
      vertex  -6.250000e-02 -3.307046e-02  2.002909e-01
    endloop
  endfacet
  facet normal -1.000000e+00  0.000000e+00 -0.000000e+00
    outer loop
      vertex  -6.250000e-02 -2.534102e-02  5.474413e-02
      vertex  -6.250000e-02  1.488425e-02  2.668642e-02
      vertex  -6.250000e-02 -3.203580e-02 -3.128360e-03
    endloop
  endfacet
  facet normal  5.179557e-07  1.000000e+00  3.461347e-07
    outer loop
      vertex   6.250000e-02  6.249996e-02 -1.333007e-01
      vertex   6.250000e-02  6.249999e-02 -1.978760e-01
      vertex   2.012982e-02  6.250000e-02 -1.775234e-01
    endloop
  endfacet
  facet normal  1.419059e-06  5.477608e-07 -1.000000e+00
    outer loop
      vertex   2.340397e-02 -2.823118e-02 -2.499999e-01
      vertex  -5.371094e-03 -6.250003e-02 -2.500000e-01
      vertex  -2.139080e-02 -2.099852e-02 -2.500000e-01
    endloop
  endfacet
  facet normal -7.961607e-07  8.390419e-07  1.000000e+00
    outer loop
      vertex   3.097949e-02 -2.453856e-02  2.500000e-01
      vertex   6.250000e-02  5.371019e-03  2.500000e-01
      vertex   2.337682e-02  2.152652e-02  2.499999e-01
    endloop
  endfacet
  facet normal -1.463960e-06  1.000000e+00  6.590213e-07
    outer loop
      vertex  -6.250000e-02  6.249996e-02 -9.326164e-02
      vertex  -1.812983e-02  6.250001e-02 -6.253018e-02
      vertex  -2.088905e-02  6.250004e-02 -1.138817e-01
    endloop
  endfacet
  facet normal -1.000000e+00 -0.000000e+00  0.000000e+00
    outer loop
      vertex  -6.250000e-02 -2.031270e-02  1.022668e-01
      vertex  -6.250000e-02 -6.250003e-02  8.007815e-02
      vertex  -6.250000e-02 -6.250003e-02  1.064453e-01
    endloop
  endfacet
  facet normal -1.000000e+00  0.000000e+00  0.000000e+00
    outer loop
      vertex  -6.250000e-02 -2.534102e-02  5.474413e-02
      vertex  -6.250000e-02 -3.203580e-02 -3.128360e-03
      vertex  -6.250000e-02 -6.250001e-02  4.650878e-02
    endloop
  endfacet
  facet normal  1.356456e-06 -1.000000e+00  3.577152e-07
    outer loop
      vertex  -6.250000e-02 -6.250003e-02 -2.500000e-01
      vertex  -2.744588e-02 -6.249997e-02 -2.162992e-01
      vertex  -6.250000e-02 -6.250001e-02 -1.875153e-01
    endloop
  endfacet
  facet normal  8.170985e-07 -1.000000e+00  5.252748e-07
    outer loop
      vertex  -1.872488e-02 -6.249999e-02  1.234552e-01
      vertex  -6.250000e-02 -6.250003e-02  1.064453e-01
      vertex  -2.311605e-02 -6.250001e-02  7.354936e-02
    endloop
  endfacet
  facet normal  4.493032e-07 -1.000000e+00  1.011853e-07
    outer loop
      vertex   2.227917e-02 -6.250000e-02 -2.571890e-02
      vertex  -2.808576e-02 -6.250002e-02 -2.297759e-02
      vertex  -1.887958e-02 -6.250002e-02 -6.385673e-02
    endloop
  endfacet
  facet normal  1.000000e+00  0.000000e+00  0.000000e+00
    outer loop
      vertex   6.250000e-02  6.250003e-02  2.500000e-01
      vertex   6.250000e-02  5.371019e-03  2.500000e-01
      vertex   6.250000e-02  1.478221e-02  2.149494e-01
    endloop
  endfacet
  facet normal -1.821299e-07 -1.000000e+00 -2.625752e-07
    outer loop
      vertex  -2.311605e-02 -6.250001e-02  7.354936e-02
      vertex   2.393610e-02 -6.250001e-02  4.091261e-02
      vertex   2.467426e-02 -6.250003e-02  9.715067e-02
    endloop
  endfacet
  facet normal -1.000000e+00  0.000000e+00  0.000000e+00
    outer loop
      vertex  -6.250000e-02 -2.534102e-02  5.474413e-02
      vertex  -6.250000e-02 -6.250003e-02  8.007815e-02
      vertex  -6.250000e-02 -2.031270e-02  1.022668e-01
    endloop
  endfacet
  facet normal -1.160001e-07  1.000000e+00 -6.034631e-07
    outer loop
      vertex   2.454553e-02  6.250001e-02 -3.569946e-02
      vertex   6.250000e-02  6.250000e-02 -6.768797e-02
      vertex   2.416427e-02  6.249998e-02 -9.118485e-02
    endloop
  endfacet
  facet normal -1.000000e+00 -0.000000e+00  0.000000e+00
    outer loop
      vertex  -6.250000e-02  6.249997e-02 -1.484222e-01
      vertex  -6.250000e-02  2.047640e-02 -1.967496e-01
      vertex  -6.250000e-02  2.040681e-02 -1.331095e-01
    endloop
  endfacet
  facet normal -1.000000e+00  0.000000e+00  0.000000e+00
    outer loop
      vertex  -6.250000e-02  6.250000e-02 -3.222656e-02
      vertex  -6.250000e-02  1.496257e-02 -2.603425e-02
      vertex  -6.250000e-02  6.250000e-02  5.859395e-03
    endloop
  endfacet
  facet normal -1.259074e-06 -1.000000e+00 -2.593831e-07
    outer loop
      vertex   1.834124e-02 -6.250003e-02 -2.087611e-01
      vertex  -1.972843e-02 -6.249999e-02 -1.675879e-01
      vertex  -2.744588e-02 -6.249997e-02 -2.162992e-01
    endloop
  endfacet
  facet normal -1.791803e-07  1.000000e+00  1.190038e-08
    outer loop
      vertex  -2.240492e-02  6.250001e-02  3.230733e-02
      vertex  -6.250000e-02  6.250000e-02  5.468750e-02
      vertex  -1.902574e-02  6.250001e-02  8.318660e-02
    endloop
  endfacet
  facet normal -1.858228e-07  1.000000e+00  0.000000e+00
    outer loop
      vertex  -6.250000e-02  6.250000e-02  5.859395e-03
      vertex  -6.250000e-02  6.250000e-02  5.468750e-02
      vertex  -2.240492e-02  6.250001e-02  3.230733e-02
    endloop
  endfacet
  facet normal -2.869768e-07  1.000000e+00  1.533494e-07
    outer loop
      vertex  -2.240492e-02  6.250001e-02  3.230733e-02
      vertex  -1.991609e-02  6.250001e-02 -1.162073e-02
      vertex  -6.250000e-02  6.250000e-02  5.859395e-03
    endloop
  endfacet
  facet normal  1.378536e-06  1.000000e+00 -7.057084e-07
    outer loop
      vertex  -1.319586e-02  6.250002e-02 -2.109493e-01
      vertex   2.012982e-02  6.250000e-02 -1.775234e-01
      vertex   2.679775e-02  6.249996e-02 -2.172862e-01
    endloop
  endfacet
  facet normal -5.847728e-07  1.000000e+00 -6.103523e-07
    outer loop
      vertex  -6.250000e-02  6.250000e-02 -3.222656e-02
      vertex  -1.812983e-02  6.250001e-02 -6.253018e-02
      vertex  -6.250000e-02  6.249996e-02 -9.326164e-02
    endloop
  endfacet
  facet normal  1.000000e+00  0.000000e+00  0.000000e+00
    outer loop
      vertex   6.250000e-02 -2.031540e-02  1.681502e-01
      vertex   6.250000e-02  2.558234e-02  1.725583e-01
      vertex   6.250000e-02  1.478221e-02  2.149494e-01
    endloop
  endfacet
  facet normal  1.000000e+00  0.000000e+00 -0.000000e+00
    outer loop
      vertex   6.250000e-02  2.558234e-02  1.725583e-01
      vertex   6.250000e-02  6.250005e-02  2.050781e-01
      vertex   6.250000e-02  1.478221e-02  2.149494e-01
    endloop
  endfacet
  facet normal -1.000000e+00 -0.000000e+00  0.000000e+00
    outer loop
      vertex  -6.250000e-02 -2.657891e-02 -6.067598e-02
      vertex  -6.250000e-02 -6.250001e-02 -7.824703e-02
      vertex  -6.250000e-02 -6.249999e-02 -4.638670e-02
    endloop
  endfacet
  facet normal -1.000000e+00  0.000000e+00  0.000000e+00
    outer loop
      vertex  -6.250000e-02  1.928382e-02  8.175124e-02
      vertex  -6.250000e-02  2.266273e-02  1.387956e-01
      vertex  -6.250000e-02  6.250000e-02  1.132812e-01
    endloop
  endfacet
  facet normal  5.934672e-08  1.000000e+00 -4.810653e-07
    outer loop
      vertex   2.042378e-02  6.250001e-02  5.764494e-02
      vertex   6.250000e-02  6.250003e-02  9.381102e-02
      vertex   6.250000e-02  6.250000e-02  3.186034e-02
    endloop
  endfacet
  facet normal -2.744483e-07  1.000000e+00 -1.559792e-07
    outer loop
      vertex  -1.812983e-02  6.250001e-02 -6.253018e-02
      vertex  -6.250000e-02  6.250000e-02 -3.222656e-02
      vertex  -1.991609e-02  6.250001e-02 -1.162073e-02
    endloop
  endfacet
  facet normal  1.000000e+00  0.000000e+00  0.000000e+00
    outer loop
      vertex   6.250000e-02  1.652852e-02  8.726500e-02
      vertex   6.250000e-02  6.250003e-02  9.381102e-02
      vertex   6.250000e-02  1.675724e-02  1.293829e-01
    endloop
  endfacet
  facet normal  0.000000e+00 -1.000000e+00  0.000000e+00
    outer loop
      vertex  -2.021971e-02 -6.250001e-02  1.780093e-02
      vertex  -2.311605e-02 -6.250001e-02  7.354936e-02
      vertex  -6.250000e-02 -6.250001e-02  4.650878e-02
    endloop
  endfacet
  facet normal -1.216955e-07  1.000000e+00  7.141180e-07
    outer loop
      vertex   2.778019e-02  6.250001e-02  1.107249e-01
      vertex  -1.766022e-02  6.249999e-02  1.394976e-01
      vertex   2.465029e-02  6.249997e-02  1.675745e-01
    endloop
  endfacet
  facet normal -1.690134e-06  1.000000e+00  2.026062e-07
    outer loop
      vertex  -6.250000e-02  6.249997e-02 -1.484222e-01
      vertex  -6.250000e-02  6.249996e-02 -9.326164e-02
      vertex  -2.088905e-02  6.250004e-02 -1.138817e-01
    endloop
  endfacet
  facet normal  1.000000e+00  0.000000e+00  0.000000e+00
    outer loop
      vertex   6.250000e-02  1.813959e-02 -6.381669e-03
      vertex   6.250000e-02  2.211073e-02 -5.538210e-02
      vertex   6.250000e-02  6.250000e-02 -7.324209e-03
    endloop
  endfacet
  facet normal  1.000000e+00  0.000000e+00 -0.000000e+00
    outer loop
      vertex   6.250000e-02 -6.250000e-02 -1.535949e-01
      vertex   6.250000e-02 -1.819094e-02 -1.348644e-01
      vertex   6.250000e-02 -6.250001e-02 -1.125488e-01
    endloop
  endfacet
  facet normal -1.000000e+00  0.000000e+00  0.000000e+00
    outer loop
      vertex  -6.250000e-02 -2.354144e-02 -1.116407e-01
      vertex  -6.250000e-02 -2.690502e-02 -1.612721e-01
      vertex  -6.250000e-02 -6.249999e-02 -1.348266e-01
    endloop
  endfacet
  facet normal -1.000000e+00  0.000000e+00  0.000000e+00
    outer loop
      vertex  -6.250000e-02 -6.250001e-02 -7.824703e-02
      vertex  -6.250000e-02 -2.354144e-02 -1.116407e-01
      vertex  -6.250000e-02 -6.249999e-02 -1.348266e-01
    endloop
  endfacet
  facet normal -1.000000e+00  0.000000e+00 -0.000000e+00
    outer loop
      vertex  -6.250000e-02  1.928382e-02  8.175124e-02
      vertex  -6.250000e-02  6.250000e-02  5.468750e-02
      vertex  -6.250000e-02  1.488425e-02  2.668642e-02
    endloop
  endfacet
  facet normal  1.185971e-07 -1.000000e+00 -2.265845e-07
    outer loop
      vertex   2.227917e-02 -6.250000e-02 -2.571890e-02
      vertex   2.393610e-02 -6.250001e-02  4.091261e-02
      vertex  -2.021971e-02 -6.250001e-02  1.780093e-02
    endloop
  endfacet
  facet normal -2.710266e-07  1.000000e+00  3.246550e-07
    outer loop
      vertex   6.250000e-02  6.250003e-02  9.381102e-02
      vertex   2.778019e-02  6.250001e-02  1.107249e-01
      vertex   6.250000e-02  6.250001e-02  1.397095e-01
    endloop
  endfacet
  facet normal -0.000000e+00  1.000000e+00  0.000000e+00
    outer loop
      vertex   2.107237e-02  6.250000e-02  1.207768e-02
      vertex   6.250000e-02  6.250000e-02  3.186034e-02
      vertex   6.250000e-02  6.250000e-02 -7.324209e-03
    endloop
  endfacet
  facet normal  1.684165e-06  1.000000e+00  1.223184e-06
    outer loop
      vertex   1.074219e-02  6.250003e-02 -2.500000e-01
      vertex  -1.319586e-02  6.250002e-02 -2.109493e-01
      vertex   2.679775e-02  6.249996e-02 -2.172862e-01
    endloop
  endfacet
  facet normal  0.000000e+00 -1.623148e-06 -1.000000e+00
    outer loop
      vertex   1.779521e-02  1.659797e-02 -2.499999e-01
      vertex   1.074219e-02  6.250003e-02 -2.500000e-01
      vertex   6.250000e-02  6.250003e-02 -2.500000e-01
    endloop
  endfacet
  facet normal -1.000000e+00 -0.000000e+00  0.000000e+00
    outer loop
      vertex  -6.250000e-02 -3.307046e-02  2.002909e-01
      vertex  -6.250000e-02 -6.249999e-02  1.978760e-01
      vertex  -6.250000e-02 -6.250003e-02  2.500000e-01
    endloop
  endfacet
  facet normal -1.000000e+00  0.000000e+00  0.000000e+00
    outer loop
      vertex  -6.250000e-02 -6.250003e-02  1.064453e-01
      vertex  -6.250000e-02 -6.249997e-02  1.513671e-01
      vertex  -6.250000e-02 -2.204210e-02  1.513045e-01
    endloop
  endfacet
  facet normal -1.000000e+00  0.000000e+00  0.000000e+00
    outer loop
      vertex  -6.250000e-02 -6.250001e-02  4.650878e-02
      vertex  -6.250000e-02 -6.250003e-02  8.007815e-02
      vertex  -6.250000e-02 -2.534102e-02  5.474413e-02
    endloop
  endfacet
  facet normal -1.000000e+00  0.000000e+00  0.000000e+00
    outer loop
      vertex  -6.250000e-02 -6.250003e-02 -2.500000e-01
      vertex  -6.250000e-02 -2.718841e-02 -2.102951e-01
      vertex  -6.250000e-02 -3.418028e-03 -2.500000e-01
    endloop
  endfacet
  facet normal -1.000000e+00  0.000000e+00  0.000000e+00
    outer loop
      vertex  -6.250000e-02  2.047640e-02 -1.967496e-01
      vertex  -6.250000e-02  6.250003e-02 -2.049741e-01
      vertex  -6.250000e-02  6.250003e-02 -2.500000e-01
    endloop
  endfacet
  facet normal -1.000000e+00  0.000000e+00  0.000000e+00
    outer loop
      vertex  -6.250000e-02  2.266273e-02  1.387956e-01
      vertex  -6.250000e-02  1.928382e-02  8.175124e-02
      vertex  -6.250000e-02 -2.031270e-02  1.022668e-01
    endloop
  endfacet
  facet normal -1.000000e+00  0.000000e+00  0.000000e+00
    outer loop
      vertex  -6.250000e-02  1.692093e-02  1.997779e-01
      vertex  -6.250000e-02  6.249997e-02  1.707153e-01
      vertex  -6.250000e-02  2.266273e-02  1.387956e-01
    endloop
  endfacet
  facet normal -1.000000e+00  0.000000e+00  0.000000e+00
    outer loop
      vertex  -6.250000e-02  1.692093e-02  1.997779e-01
      vertex  -6.250000e-02  6.250002e-02  2.302246e-01
      vertex  -6.250000e-02  6.249997e-02  1.707153e-01
    endloop
  endfacet
  facet normal -1.285570e-07 -1.000000e+00  7.480801e-07
    outer loop
      vertex   1.834124e-02 -6.250003e-02 -2.087611e-01
      vertex   6.250000e-02 -6.250004e-02 -2.111320e-01
      vertex   2.876610e-02 -6.249999e-02 -1.521918e-01
    endloop
  endfacet
  facet normal  3.047710e-07 -1.000000e+00 -4.438916e-07
    outer loop
      vertex  -2.311605e-02 -6.250001e-02  7.354936e-02
      vertex  -6.250000e-02 -6.250003e-02  8.007815e-02
      vertex  -6.250000e-02 -6.250001e-02  4.650878e-02
    endloop
  endfacet
  facet normal -4.959041e-07 -1.000000e+00  4.677027e-07
    outer loop
      vertex  -6.250000e-02 -6.249999e-02 -4.638670e-02
      vertex  -6.250000e-02 -6.250001e-02 -7.824703e-02
      vertex  -1.887958e-02 -6.250002e-02 -6.385673e-02
    endloop
  endfacet
  facet normal  1.836838e-07 -1.000000e+00  3.535194e-07
    outer loop
      vertex  -6.250000e-02 -6.249999e-02 -1.348266e-01
      vertex  -6.250000e-02 -6.250001e-02 -1.875153e-01
      vertex  -1.972843e-02 -6.249999e-02 -1.675879e-01
    endloop
  endfacet
  facet normal  0.000000e+00 -1.000000e+00  0.000000e+00
    outer loop
      vertex   6.250000e-02 -6.250000e-02 -7.541654e-02
      vertex   6.250000e-02 -6.250000e-02 -1.678466e-02
      vertex   2.227917e-02 -6.250000e-02 -2.571890e-02
    endloop
  endfacet
  facet normal -6.489092e-07 -1.000000e+00  6.288406e-07
    outer loop
      vertex  -1.872488e-02 -6.249999e-02  1.234552e-01
      vertex   2.467426e-02 -6.250003e-02  9.715067e-02
      vertex   2.290296e-02 -6.250000e-02  1.486394e-01
    endloop
  endfacet
  facet normal  6.537716e-07 -1.000000e+00  6.736549e-07
    outer loop
      vertex   2.290296e-02 -6.250000e-02  1.486394e-01
      vertex   2.467426e-02 -6.250003e-02  9.715067e-02
      vertex   6.250000e-02 -6.249999e-02  1.268010e-01
    endloop
  endfacet
  facet normal  0.000000e+00 -1.000000e+00  0.000000e+00
    outer loop
      vertex   2.807617e-02 -6.250003e-02  2.500000e-01
      vertex   6.250000e-02 -6.250003e-02  2.275390e-01
      vertex   6.250000e-02 -6.250003e-02  2.500000e-01
    endloop
  endfacet
  facet normal -1.069557e-07  1.000000e+00 -9.548147e-07
    outer loop
      vertex   2.012982e-02  6.250000e-02 -1.775234e-01
      vertex   6.250000e-02  6.249999e-02 -1.978760e-01
      vertex   2.679775e-02  6.249996e-02 -2.172862e-01
    endloop
  endfacet
  facet normal  1.326558e-06  1.000000e+00  7.652255e-07
    outer loop
      vertex   6.250000e-02  6.249996e-02 -1.333007e-01
      vertex   1.352365e-02  6.250003e-02 -1.360257e-01
      vertex   2.416427e-02  6.249998e-02 -9.118485e-02
    endloop
  endfacet
  facet normal  1.000000e+00  0.000000e+00  0.000000e+00
    outer loop
      vertex   6.250000e-02  6.249999e-02 -1.978760e-01
      vertex   6.250000e-02  6.249996e-02 -1.333007e-01
      vertex   6.250000e-02  2.337363e-02 -1.627438e-01
    endloop
  endfacet
  facet normal  1.000000e+00  0.000000e+00 -0.000000e+00
    outer loop
      vertex   6.250000e-02  6.250000e-02  3.186034e-02
      vertex   6.250000e-02  6.250003e-02  9.381102e-02
      vertex   6.250000e-02  1.984850e-02  4.158720e-02
    endloop
  endfacet
  facet normal  1.000000e+00  0.000000e+00  0.000000e+00
    outer loop
      vertex   6.250000e-02  1.675724e-02  1.293829e-01
      vertex   6.250000e-02 -2.031540e-02  1.681502e-01
      vertex   6.250000e-02 -2.437282e-02  1.088857e-01
    endloop
  endfacet
  facet normal  1.000000e+00  0.000000e+00  0.000000e+00
    outer loop
      vertex   6.250000e-02  2.075233e-03 -2.500000e-01
      vertex   6.250000e-02 -2.385518e-02 -2.222768e-01
      vertex   6.250000e-02 -6.250003e-02 -2.500000e-01
    endloop
  endfacet
  facet normal -1.333580e-06  1.000000e+00 -2.269332e-07
    outer loop
      vertex  -2.088905e-02  6.250004e-02 -1.138817e-01
      vertex  -2.368420e-02  6.250002e-02 -1.631191e-01
      vertex  -6.250000e-02  6.249997e-02 -1.484222e-01
    endloop
  endfacet
  facet normal  1.000000e+00 -0.000000e+00  0.000000e+00
    outer loop
      vertex   6.250000e-02  1.675724e-02  1.293829e-01
      vertex   6.250000e-02  6.250003e-02  9.381102e-02
      vertex   6.250000e-02  6.250001e-02  1.397095e-01
    endloop
  endfacet
  facet normal -1.000000e+00 -0.000000e+00  0.000000e+00
    outer loop
      vertex  -6.250000e-02  6.249996e-02 -9.326164e-02
      vertex  -6.250000e-02  2.040681e-02 -1.331095e-01
      vertex  -6.250000e-02  1.790822e-02 -7.908421e-02
    endloop
  endfacet
  facet normal -7.435189e-07 -1.000000e+00 -1.800448e-07
    outer loop
      vertex  -6.250000e-02 -6.250000e-02 -5.004873e-03
      vertex  -6.250000e-02 -6.249999e-02 -4.638670e-02
      vertex  -2.808576e-02 -6.250002e-02 -2.297759e-02
    endloop
  endfacet
  facet normal -6.342780e-07 -1.000000e+00  6.529800e-07
    outer loop
      vertex  -1.872488e-02 -6.249999e-02  1.234552e-01
      vertex  -2.311605e-02 -6.250001e-02  7.354936e-02
      vertex   2.467426e-02 -6.250003e-02  9.715067e-02
    endloop
  endfacet
  facet normal -1.502209e-06  1.000000e+00 -5.698899e-07
    outer loop
      vertex   2.465029e-02  6.249997e-02  1.675745e-01
      vertex   6.250000e-02  6.250005e-02  2.050781e-01
      vertex   6.250000e-02  6.250001e-02  1.397095e-01
    endloop
  endfacet
  facet normal  1.000000e+00 -0.000000e+00  0.000000e+00
    outer loop
      vertex   6.250000e-02 -2.282834e-02  5.724900e-02
      vertex   6.250000e-02  1.984850e-02  4.158720e-02
      vertex   6.250000e-02  1.652852e-02  8.726500e-02
    endloop
  endfacet
  facet normal  5.708348e-07  1.000000e+00 -1.401789e-06
    outer loop
      vertex   2.929681e-02  6.250004e-02  2.146445e-01
      vertex   2.465029e-02  6.249997e-02  1.675745e-01
      vertex  -1.543712e-02  6.250004e-02  1.964280e-01
    endloop
  endfacet
  facet normal -6.610944e-08  1.000000e+00  1.623439e-07
    outer loop
      vertex   3.417969e-03  6.250003e-02  2.500000e-01
      vertex   2.929681e-02  6.250004e-02  2.146445e-01
      vertex  -1.543712e-02  6.250004e-02  1.964280e-01
    endloop
  endfacet
  facet normal  1.000000e+00 -0.000000e+00  0.000000e+00
    outer loop
      vertex   6.250000e-02 -6.250000e-02 -1.678466e-02
      vertex   6.250000e-02 -2.087386e-02 -4.207279e-02
      vertex   6.250000e-02 -2.356152e-02  7.968571e-03
    endloop
  endfacet
  facet normal  0.000000e+00 -1.000000e+00  0.000000e+00
    outer loop
      vertex   6.250000e-02 -6.250003e-02 -2.500000e-01
      vertex   1.834124e-02 -6.250003e-02 -2.087611e-01
      vertex  -5.371094e-03 -6.250003e-02 -2.500000e-01
    endloop
  endfacet
  facet normal  5.056251e-07 -1.000000e+00  1.326852e-06
    outer loop
      vertex  -6.250000e-02 -6.250003e-02  1.064453e-01
      vertex  -1.872488e-02 -6.249999e-02  1.234552e-01
      vertex  -6.250000e-02 -6.249997e-02  1.513671e-01
    endloop
  endfacet
  facet normal -5.033635e-07 -1.000000e+00  2.798057e-07
    outer loop
      vertex  -6.250000e-02 -6.250000e-02 -5.004873e-03
      vertex  -2.808576e-02 -6.250002e-02 -2.297759e-02
      vertex  -2.021971e-02 -6.250001e-02  1.780093e-02
    endloop
  endfacet
  facet normal  0.000000e+00 -1.000000e+00  1.768642e-06
    outer loop
      vertex  -5.371094e-03 -6.250003e-02 -2.500000e-01
      vertex  -2.744588e-02 -6.249997e-02 -2.162992e-01
      vertex  -6.250000e-02 -6.250003e-02 -2.500000e-01
    endloop
  endfacet
  facet normal  1.019045e-06 -1.000000e+00 -8.576366e-07
    outer loop
      vertex  -1.645357e-02 -6.249996e-02  2.178390e-01
      vertex  -6.250000e-02 -6.250003e-02  2.500000e-01
      vertex  -6.250000e-02 -6.249999e-02  1.978760e-01
    endloop
  endfacet
  facet normal  0.000000e+00 -1.000000e+00  0.000000e+00
    outer loop
      vertex  -2.021971e-02 -6.250001e-02  1.780093e-02
      vertex   2.393610e-02 -6.250001e-02  4.091261e-02
      vertex  -2.311605e-02 -6.250001e-02  7.354936e-02
    endloop
  endfacet
  facet normal  1.000000e+00  0.000000e+00  0.000000e+00
    outer loop
      vertex   6.250000e-02 -6.250003e-02  2.500000e-01
      vertex   6.250000e-02 -6.250003e-02  2.275390e-01
      vertex   6.250000e-02 -3.141950e-02  2.195850e-01
    endloop
  endfacet
  facet normal  1.000000e+00  0.000000e+00  0.000000e+00
    outer loop
      vertex   6.250000e-02  1.813959e-02 -6.381669e-03
      vertex   6.250000e-02 -2.087386e-02 -4.207279e-02
      vertex   6.250000e-02  2.211073e-02 -5.538210e-02
    endloop
  endfacet
  facet normal  9.410648e-07  1.000000e+00 -8.874145e-07
    outer loop
      vertex  -1.766022e-02  6.249999e-02  1.394976e-01
      vertex  -1.543712e-02  6.250004e-02  1.964280e-01
      vertex   2.465029e-02  6.249997e-02  1.675745e-01
    endloop
  endfacet
  facet normal -1.000000e+00  0.000000e+00  0.000000e+00
    outer loop
      vertex  -6.250000e-02 -2.354144e-02 -1.116407e-01
      vertex  -6.250000e-02 -6.250001e-02 -7.824703e-02
      vertex  -6.250000e-02 -2.657891e-02 -6.067598e-02
    endloop
  endfacet
  facet normal  1.000000e+00 -0.000000e+00  0.000000e+00
    outer loop
      vertex   6.250000e-02 -2.031540e-02  1.681502e-01
      vertex   6.250000e-02  1.675724e-02  1.293829e-01
      vertex   6.250000e-02  2.558234e-02  1.725583e-01
    endloop
  endfacet
  facet normal  1.000000e+00  0.000000e+00 -0.000000e+00
    outer loop
      vertex   6.250000e-02  1.967680e-02 -2.116482e-01
      vertex   6.250000e-02  2.337363e-02 -1.627438e-01
      vertex   6.250000e-02 -2.106358e-02 -1.839794e-01
    endloop
  endfacet
  facet normal  1.000000e+00  0.000000e+00 -0.000000e+00
    outer loop
      vertex   6.250000e-02  2.081985e-02 -1.057085e-01
      vertex   6.250000e-02  2.211073e-02 -5.538210e-02
      vertex   6.250000e-02 -1.913042e-02 -8.845334e-02
    endloop
  endfacet
  facet normal -1.000000e+00  0.000000e+00 -0.000000e+00
    outer loop
      vertex  -6.250000e-02  2.040681e-02 -1.331095e-01
      vertex  -6.250000e-02  2.047640e-02 -1.967496e-01
      vertex  -6.250000e-02 -2.690502e-02 -1.612721e-01
    endloop
  endfacet
  facet normal  5.955463e-07 -1.000000e+00 -1.231194e-07
    outer loop
      vertex  -1.887958e-02 -6.250002e-02 -6.385673e-02
      vertex  -1.659008e-02 -6.250001e-02 -1.132972e-01
      vertex   2.541194e-02 -6.249999e-02 -9.167261e-02
    endloop
  endfacet
  facet normal  3.926062e-07  1.000000e+00 -0.000000e+00
    outer loop
      vertex   6.250000e-02  6.250000e-02 -6.768797e-02
      vertex   2.454553e-02  6.250001e-02 -3.569946e-02
      vertex   6.250000e-02  6.250000e-02 -7.324209e-03
    endloop
  endfacet
  facet normal  1.000000e+00  0.000000e+00  0.000000e+00
    outer loop
      vertex   6.250000e-02 -2.282834e-02  5.724900e-02
      vertex   6.250000e-02 -6.250000e-02  1.668929e-02
      vertex   6.250000e-02 -2.356152e-02  7.968571e-03
    endloop
  endfacet
  facet normal -1.378776e-07  1.000000e+00 -5.677695e-07
    outer loop
      vertex   6.250000e-02  6.249996e-02 -1.333007e-01
      vertex   2.416427e-02  6.249998e-02 -9.118485e-02
      vertex   6.250000e-02  6.250000e-02 -6.768797e-02
    endloop
  endfacet
  facet normal  2.062120e-07  1.000000e+00 -6.056771e-07
    outer loop
      vertex   2.454553e-02  6.250001e-02 -3.569946e-02
      vertex   2.416427e-02  6.249998e-02 -9.118485e-02
      vertex  -1.812983e-02  6.250001e-02 -6.253018e-02
    endloop
  endfacet
  facet normal -8.079265e-08  1.000000e+00 -1.491844e-07
    outer loop
      vertex  -1.991609e-02  6.250001e-02 -1.162073e-02
      vertex   2.454553e-02  6.250001e-02 -3.569946e-02
      vertex  -1.812983e-02  6.250001e-02 -6.253018e-02
    endloop
  endfacet
  facet normal -1.000000e+00  0.000000e+00  0.000000e+00
    outer loop
      vertex  -6.250000e-02 -2.718841e-02 -2.102951e-01
      vertex  -6.250000e-02  2.047640e-02 -1.967496e-01
      vertex  -6.250000e-02 -3.418028e-03 -2.500000e-01
    endloop
  endfacet
  facet normal -1.000000e+00  0.000000e+00  0.000000e+00
    outer loop
      vertex  -6.250000e-02  2.047640e-02 -1.967496e-01
      vertex  -6.250000e-02  6.249997e-02 -1.484222e-01
      vertex  -6.250000e-02  6.250003e-02 -2.049741e-01
    endloop
  endfacet
  facet normal -1.000000e+00  0.000000e+00  0.000000e+00
    outer loop
      vertex  -6.250000e-02  1.692093e-02  1.997779e-01
      vertex  -6.250000e-02 -3.307046e-02  2.002909e-01
      vertex  -6.250000e-02 -1.074225e-02  2.500000e-01
    endloop
  endfacet
  facet normal  1.000000e+00  0.000000e+00  0.000000e+00
    outer loop
      vertex   6.250000e-02  6.250001e-02  1.397095e-01
      vertex   6.250000e-02  2.558234e-02  1.725583e-01
      vertex   6.250000e-02  1.675724e-02  1.293829e-01
    endloop
  endfacet
  facet normal  1.000000e+00 -0.000000e+00  0.000000e+00
    outer loop
      vertex   6.250000e-02  2.081985e-02 -1.057085e-01
      vertex   6.250000e-02  6.249996e-02 -1.333007e-01
      vertex   6.250000e-02  6.250000e-02 -6.768797e-02
    endloop
  endfacet
  facet normal  1.000000e+00  0.000000e+00 -0.000000e+00
    outer loop
      vertex   6.250000e-02 -2.106358e-02 -1.839794e-01
      vertex   6.250000e-02 -1.819094e-02 -1.348644e-01
      vertex   6.250000e-02 -6.250000e-02 -1.535949e-01
    endloop
  endfacet
  facet normal  1.000000e+00  0.000000e+00 -0.000000e+00
    outer loop
      vertex   6.250000e-02  1.813959e-02 -6.381669e-03
      vertex   6.250000e-02  1.984850e-02  4.158720e-02
      vertex   6.250000e-02 -2.356152e-02  7.968571e-03
    endloop
  endfacet
  facet normal  1.000000e+00  0.000000e+00 -0.000000e+00
    outer loop
      vertex   6.250000e-02  6.250000e-02 -7.324209e-03
      vertex   6.250000e-02  6.250000e-02  3.186034e-02
      vertex   6.250000e-02  1.813959e-02 -6.381669e-03
    endloop
  endfacet
  facet normal  1.552402e-07  1.000000e+00  3.404149e-08
    outer loop
      vertex  -2.368420e-02  6.250002e-02 -1.631191e-01
      vertex  -1.319586e-02  6.250002e-02 -2.109493e-01
      vertex  -6.250000e-02  6.250003e-02 -2.049741e-01
    endloop
  endfacet
  facet normal -1.000000e+00  0.000000e+00  0.000000e+00
    outer loop
      vertex  -6.250000e-02 -6.250000e-02 -5.004873e-03
      vertex  -6.250000e-02 -3.203580e-02 -3.128360e-03
      vertex  -6.250000e-02 -6.249999e-02 -4.638670e-02
    endloop
  endfacet
  facet normal  1.000000e+00  0.000000e+00 -0.000000e+00
    outer loop
      vertex   6.250000e-02 -2.087386e-02 -4.207279e-02
      vertex   6.250000e-02  1.813959e-02 -6.381669e-03
      vertex   6.250000e-02 -2.356152e-02  7.968571e-03
    endloop
  endfacet
  facet normal  1.000000e+00  0.000000e+00  0.000000e+00
    outer loop
      vertex   6.250000e-02  1.675724e-02  1.293829e-01
      vertex   6.250000e-02 -2.437282e-02  1.088857e-01
      vertex   6.250000e-02  1.652852e-02  8.726500e-02
    endloop
  endfacet
  facet normal -1.810772e-07  1.000000e+00  1.202636e-08
    outer loop
      vertex   2.042378e-02  6.250001e-02  5.764494e-02
      vertex  -2.240492e-02  6.250001e-02  3.230733e-02
      vertex  -1.902574e-02  6.250001e-02  8.318660e-02
    endloop
  endfacet
  facet normal  1.551029e-07  1.000000e+00 -3.248069e-07
    outer loop
      vertex   6.250000e-02  6.250000e-02  3.186034e-02
      vertex   2.107237e-02  6.250000e-02  1.207768e-02
      vertex   2.042378e-02  6.250001e-02  5.764494e-02
    endloop
  endfacet
  facet normal  1.000000e+00  0.000000e+00  0.000000e+00
    outer loop
      vertex   6.250000e-02 -6.250000e-02 -1.678466e-02
      vertex   6.250000e-02 -6.250000e-02 -7.541654e-02
      vertex   6.250000e-02 -2.087386e-02 -4.207279e-02
    endloop
  endfacet
  facet normal  1.000000e+00 -0.000000e+00  0.000000e+00
    outer loop
      vertex   6.250000e-02  2.558234e-02  1.725583e-01
      vertex   6.250000e-02  6.250001e-02  1.397095e-01
      vertex   6.250000e-02  6.250005e-02  2.050781e-01
    endloop
  endfacet
  facet normal -1.000000e+00  0.000000e+00  0.000000e+00
    outer loop
      vertex  -6.250000e-02 -3.203580e-02 -3.128360e-03
      vertex  -6.250000e-02  1.488425e-02  2.668642e-02
      vertex  -6.250000e-02  1.496257e-02 -2.603425e-02
    endloop
  endfacet
  facet normal -5.753072e-07  1.000000e+00  6.891440e-07
    outer loop
      vertex   2.465029e-02  6.249997e-02  1.675745e-01
      vertex   6.250000e-02  6.250001e-02  1.397095e-01
      vertex   2.778019e-02  6.250001e-02  1.107249e-01
    endloop
  endfacet
  facet normal -1.000000e+00  0.000000e+00  0.000000e+00
    outer loop
      vertex  -6.250000e-02  1.496257e-02 -2.603425e-02
      vertex  -6.250000e-02  1.488425e-02  2.668642e-02
      vertex  -6.250000e-02  6.250000e-02  5.859395e-03
    endloop
  endfacet
  facet normal -4.337892e-08 -1.000000e+00  4.658318e-07
    outer loop
      vertex  -1.951018e-02 -6.249996e-02  1.713645e-01
      vertex  -6.250000e-02 -6.249997e-02  1.513671e-01
      vertex  -1.872488e-02 -6.249999e-02  1.234552e-01
    endloop
  endfacet
  facet normal  1.000000e+00  0.000000e+00 -0.000000e+00
    outer loop
      vertex   6.250000e-02  2.337363e-02 -1.627438e-01
      vertex   6.250000e-02  6.249996e-02 -1.333007e-01
      vertex   6.250000e-02  2.081985e-02 -1.057085e-01
    endloop
  endfacet
  facet normal  1.000000e+00  0.000000e+00  0.000000e+00
    outer loop
      vertex   6.250000e-02  2.337363e-02 -1.627438e-01
      vertex   6.250000e-02  2.081985e-02 -1.057085e-01
      vertex   6.250000e-02 -1.819094e-02 -1.348644e-01
    endloop
  endfacet
  facet normal  4.490260e-07 -1.000000e+00  9.609274e-08
    outer loop
      vertex  -2.021971e-02 -6.250001e-02  1.780093e-02
      vertex  -2.808576e-02 -6.250002e-02 -2.297759e-02
      vertex   2.227917e-02 -6.250000e-02 -2.571890e-02
    endloop
  endfacet
  facet normal -1.000000e+00  0.000000e+00  0.000000e+00
    outer loop
      vertex  -6.250000e-02 -6.250003e-02  2.500000e-01
      vertex  -6.250000e-02 -1.074225e-02  2.500000e-01
      vertex  -6.250000e-02 -3.307046e-02  2.002909e-01
    endloop
  endfacet
  facet normal -1.092331e-06  1.000000e+00  8.576366e-07
    outer loop
      vertex   6.250000e-02  6.250003e-02 -2.500000e-01
      vertex   2.679775e-02  6.249996e-02 -2.172862e-01
      vertex   6.250000e-02  6.249999e-02 -1.978760e-01
    endloop
  endfacet
  facet normal  1.000000e+00  0.000000e+00  0.000000e+00
    outer loop
      vertex   6.250000e-02 -6.250003e-02  2.275390e-01
      vertex   6.250000e-02 -6.250004e-02  1.794664e-01
      vertex   6.250000e-02 -3.141950e-02  2.195850e-01
    endloop
  endfacet
  facet normal -1.000000e+00  0.000000e+00  0.000000e+00
    outer loop
      vertex  -6.250000e-02 -2.657891e-02 -6.067598e-02
      vertex  -6.250000e-02  1.790822e-02 -7.908421e-02
      vertex  -6.250000e-02 -2.354144e-02 -1.116407e-01
    endloop
  endfacet
  facet normal -1.733122e-07  1.000000e+00  2.401953e-08
    outer loop
      vertex   2.042378e-02  6.250001e-02  5.764494e-02
      vertex  -1.902574e-02  6.250001e-02  8.318660e-02
      vertex   2.778019e-02  6.250001e-02  1.107249e-01
    endloop
  endfacet
  facet normal  1.000000e+00  0.000000e+00  0.000000e+00
    outer loop
      vertex   6.250000e-02 -2.282834e-02  5.724900e-02
      vertex   6.250000e-02 -2.437282e-02  1.088857e-01
      vertex   6.250000e-02 -6.250000e-02  7.379340e-02
    endloop
  endfacet
  facet normal  5.946763e-07 -1.000000e+00  1.212039e-07
    outer loop
      vertex  -1.951018e-02 -6.249996e-02  1.713645e-01
      vertex  -1.645357e-02 -6.249996e-02  2.178390e-01
      vertex  -6.250000e-02 -6.249999e-02  1.978760e-01
    endloop
  endfacet
  facet normal  1.000000e+00  0.000000e+00  0.000000e+00
    outer loop
      vertex   6.250000e-02 -2.282834e-02  5.724900e-02
      vertex   6.250000e-02 -6.250000e-02  7.379340e-02
      vertex   6.250000e-02 -6.250000e-02  1.668929e-02
    endloop
  endfacet
  facet normal -3.499246e-07  1.000000e+00  0.000000e+00
    outer loop
      vertex  -6.250000e-02  6.250000e-02  5.859395e-03
      vertex  -1.991609e-02  6.250001e-02 -1.162073e-02
      vertex  -6.250000e-02  6.250000e-02 -3.222656e-02
    endloop
  endfacet
  facet normal -2.130572e-07  1.000000e+00  6.357834e-08
    outer loop
      vertex  -1.902574e-02  6.250001e-02  8.318660e-02
      vertex  -6.250000e-02  6.250000e-02  5.468750e-02
      vertex  -6.250000e-02  6.250000e-02  1.132812e-01
    endloop
  endfacet
  facet normal -1.000000e+00  0.000000e+00  0.000000e+00
    outer loop
      vertex  -6.250000e-02  3.027348e-02  2.500000e-01
      vertex  -6.250000e-02  6.250003e-02  2.500000e-01
      vertex  -6.250000e-02  6.250002e-02  2.302246e-01
    endloop
  endfacet
  facet normal -1.000000e+00  0.000000e+00 -0.000000e+00
    outer loop
      vertex  -6.250000e-02  6.250000e-02  5.468750e-02
      vertex  -6.250000e-02  6.250000e-02  5.859395e-03
      vertex  -6.250000e-02  1.488425e-02  2.668642e-02
    endloop
  endfacet
  facet normal  1.000000e+00  0.000000e+00  0.000000e+00
    outer loop
      vertex   6.250000e-02  1.813959e-02 -6.381669e-03
      vertex   6.250000e-02  6.250000e-02  3.186034e-02
      vertex   6.250000e-02  1.984850e-02  4.158720e-02
    endloop
  endfacet
  facet normal  1.000000e+00  0.000000e+00  0.000000e+00
    outer loop
      vertex   6.250000e-02  1.967680e-02 -2.116482e-01
      vertex   6.250000e-02  6.249999e-02 -1.978760e-01
      vertex   6.250000e-02  2.337363e-02 -1.627438e-01
    endloop
  endfacet
  facet normal -1.349776e-06 -1.000000e+00 -1.043805e-06
    outer loop
      vertex   2.290296e-02 -6.250000e-02  1.486394e-01
      vertex   2.342770e-02 -6.250005e-02  2.014951e-01
      vertex  -1.951018e-02 -6.249996e-02  1.713645e-01
    endloop
  endfacet
  facet normal  7.907367e-07  1.000000e+00  8.923743e-07
    outer loop
      vertex   2.416427e-02  6.249998e-02 -9.118485e-02
      vertex   1.352365e-02  6.250003e-02 -1.360257e-01
      vertex  -2.088905e-02  6.250004e-02 -1.138817e-01
    endloop
  endfacet
  facet normal -1.000000e+00  0.000000e+00  0.000000e+00
    outer loop
      vertex  -6.250000e-02 -6.250001e-02 -1.875153e-01
      vertex  -6.250000e-02 -2.690502e-02 -1.612721e-01
      vertex  -6.250000e-02 -2.718841e-02 -2.102951e-01
    endloop
  endfacet
  facet normal  1.000000e+00  0.000000e+00  0.000000e+00
    outer loop
      vertex   6.250000e-02 -1.819094e-02 -1.348644e-01
      vertex   6.250000e-02 -2.106358e-02 -1.839794e-01
      vertex   6.250000e-02  2.337363e-02 -1.627438e-01
    endloop
  endfacet
  facet normal  1.000000e+00  0.000000e+00  0.000000e+00
    outer loop
      vertex   6.250000e-02 -6.250000e-02 -1.678466e-02
      vertex   6.250000e-02 -2.356152e-02  7.968571e-03
      vertex   6.250000e-02 -6.250000e-02  1.668929e-02
    endloop
  endfacet
  facet normal  3.783562e-07 -1.000000e+00  0.000000e+00
    outer loop
      vertex  -6.250000e-02 -6.250003e-02  8.007815e-02
      vertex  -2.311605e-02 -6.250001e-02  7.354936e-02
      vertex  -6.250000e-02 -6.250003e-02  1.064453e-01
    endloop
  endfacet
  facet normal -1.000000e+00  0.000000e+00  0.000000e+00
    outer loop
      vertex  -6.250000e-02 -2.657891e-02 -6.067598e-02
      vertex  -6.250000e-02  1.496257e-02 -2.603425e-02
      vertex  -6.250000e-02  1.790822e-02 -7.908421e-02
    endloop
  endfacet
  facet normal -1.000000e+00  0.000000e+00  0.000000e+00
    outer loop
      vertex  -6.250000e-02 -2.031270e-02  1.022668e-01
      vertex  -6.250000e-02 -6.250003e-02  1.064453e-01
      vertex  -6.250000e-02 -2.204210e-02  1.513045e-01
    endloop
  endfacet
  facet normal -9.010255e-07  1.000000e+00 -8.138013e-07
    outer loop
      vertex  -6.250000e-02  6.250002e-02  2.302246e-01
      vertex  -1.543712e-02  6.250004e-02  1.964280e-01
      vertex  -6.250000e-02  6.249997e-02  1.707153e-01
    endloop
  endfacet
  facet normal  1.000000e+00  0.000000e+00  0.000000e+00
    outer loop
      vertex   6.250000e-02  6.250003e-02 -2.500000e-01
      vertex   6.250000e-02  1.967680e-02 -2.116482e-01
      vertex   6.250000e-02  2.075233e-03 -2.500000e-01
    endloop
  endfacet
  facet normal  4.687543e-07 -1.000000e+00  1.549859e-07
    outer loop
      vertex   6.250000e-02 -6.250004e-02  1.794664e-01
      vertex   6.250000e-02 -6.250003e-02  2.275390e-01
      vertex   2.342770e-02 -6.250005e-02  2.014951e-01
    endloop
  endfacet
  facet normal -1.000000e+00  0.000000e+00  0.000000e+00
    outer loop
      vertex  -6.250000e-02 -2.718841e-02 -2.102951e-01
      vertex  -6.250000e-02 -2.690502e-02 -1.612721e-01
      vertex  -6.250000e-02  2.047640e-02 -1.967496e-01
    endloop
  endfacet
  facet normal -1.000000e+00  0.000000e+00  0.000000e+00
    outer loop
      vertex  -6.250000e-02  2.266273e-02  1.387956e-01
      vertex  -6.250000e-02 -2.204210e-02  1.513045e-01
      vertex  -6.250000e-02  1.692093e-02  1.997779e-01
    endloop
  endfacet
  facet normal  2.099598e-08  1.000000e+00 -3.038309e-07
    outer loop
      vertex  -2.368420e-02  6.250002e-02 -1.631191e-01
      vertex  -2.088905e-02  6.250004e-02 -1.138817e-01
      vertex   1.352365e-02  6.250003e-02 -1.360257e-01
    endloop
  endfacet
  facet normal -1.000000e+00  0.000000e+00  0.000000e+00
    outer loop
      vertex  -6.250000e-02 -2.354144e-02 -1.116407e-01
      vertex  -6.250000e-02  1.790822e-02 -7.908421e-02
      vertex  -6.250000e-02  2.040681e-02 -1.331095e-01
    endloop
  endfacet
  facet normal  5.497854e-07  1.000000e+00  1.205584e-07
    outer loop
      vertex  -2.368420e-02  6.250002e-02 -1.631191e-01
      vertex   2.012982e-02  6.250000e-02 -1.775234e-01
      vertex  -1.319586e-02  6.250002e-02 -2.109493e-01
    endloop
  endfacet
  facet normal  1.000000e+00 -0.000000e+00  0.000000e+00
    outer loop
      vertex   6.250000e-02 -6.250001e-02 -1.125488e-01
      vertex   6.250000e-02 -1.819094e-02 -1.348644e-01
      vertex   6.250000e-02 -1.913042e-02 -8.845334e-02
    endloop
  endfacet
  facet normal -1.000000e+00 -0.000000e+00  0.000000e+00
    outer loop
      vertex  -6.250000e-02  1.496257e-02 -2.603425e-02
      vertex  -6.250000e-02 -2.657891e-02 -6.067598e-02
      vertex  -6.250000e-02 -3.203580e-02 -3.128360e-03
    endloop
  endfacet
  facet normal  3.864018e-07 -1.000000e+00  0.000000e+00
    outer loop
      vertex   2.393610e-02 -6.250001e-02  4.091261e-02
      vertex   6.250000e-02 -6.250000e-02  1.668929e-02
      vertex   6.250000e-02 -6.250000e-02  7.379340e-02
    endloop
  endfacet
  facet normal -7.509514e-07 -1.000000e+00 -1.691179e-07
    outer loop
      vertex  -2.808576e-02 -6.250002e-02 -2.297759e-02
      vertex  -6.250000e-02 -6.249999e-02 -4.638670e-02
      vertex  -1.887958e-02 -6.250002e-02 -6.385673e-02
    endloop
  endfacet
  facet normal  1.000000e+00  0.000000e+00 -0.000000e+00
    outer loop
      vertex   6.250000e-02  1.984850e-02  4.158720e-02
      vertex   6.250000e-02  6.250003e-02  9.381102e-02
      vertex   6.250000e-02  1.652852e-02  8.726500e-02
    endloop
  endfacet
  facet normal  6.069774e-07 -1.000000e+00 -5.550261e-07
    outer loop
      vertex  -1.972843e-02 -6.249999e-02 -1.675879e-01
      vertex  -6.250000e-02 -6.250001e-02 -1.875153e-01
      vertex  -2.744588e-02 -6.249997e-02 -2.162992e-01
    endloop
  endfacet
  facet normal  1.000000e+00  0.000000e+00  0.000000e+00
    outer loop
      vertex   6.250000e-02  1.967680e-02 -2.116482e-01
      vertex   6.250000e-02 -2.106358e-02 -1.839794e-01
      vertex   6.250000e-02 -2.385518e-02 -2.222768e-01
    endloop
  endfacet
  facet normal  1.412827e-06  5.091635e-07 -1.000000e+00
    outer loop
      vertex   1.779521e-02  1.659797e-02 -2.499999e-01
      vertex   2.340397e-02 -2.823118e-02 -2.499999e-01
      vertex  -2.139080e-02 -2.099852e-02 -2.500000e-01
    endloop
  endfacet
  facet normal  2.325497e-06 -1.119250e-06  1.000000e+00
    outer loop
      vertex  -2.784113e-02  2.161775e-02  2.500001e-01
      vertex  -2.364069e-02 -2.290899e-02  2.500000e-01
      vertex   2.337682e-02  2.152652e-02  2.499999e-01
    endloop
  endfacet
  facet normal -1.437895e-06 -1.000000e+00  8.267883e-07
    outer loop
      vertex  -5.371094e-03 -6.250003e-02 -2.500000e-01
      vertex   1.834124e-02 -6.250003e-02 -2.087611e-01
      vertex  -2.744588e-02 -6.249997e-02 -2.162992e-01
    endloop
  endfacet
  facet normal -1.000000e+00  0.000000e+00  0.000000e+00
    outer loop
      vertex  -6.250000e-02 -3.307046e-02  2.002909e-01
      vertex  -6.250000e-02  1.692093e-02  1.997779e-01
      vertex  -6.250000e-02 -2.204210e-02  1.513045e-01
    endloop
  endfacet
  facet normal -1.000000e+00 -0.000000e+00  0.000000e+00
    outer loop
      vertex  -6.250000e-02  2.040681e-02 -1.331095e-01
      vertex  -6.250000e-02 -2.690502e-02 -1.612721e-01
      vertex  -6.250000e-02 -2.354144e-02 -1.116407e-01
    endloop
  endfacet
  facet normal -1.000000e+00 -0.000000e+00  0.000000e+00
    outer loop
      vertex  -6.250000e-02  3.027348e-02  2.500000e-01
      vertex  -6.250000e-02  1.692093e-02  1.997779e-01
      vertex  -6.250000e-02 -1.074225e-02  2.500000e-01
    endloop
  endfacet
  facet normal  0.000000e+00  1.000000e+00  2.049753e-06
    outer loop
      vertex   2.679775e-02  6.249996e-02 -2.172862e-01
      vertex   6.250000e-02  6.250003e-02 -2.500000e-01
      vertex   1.074219e-02  6.250003e-02 -2.500000e-01
    endloop
  endfacet
  facet normal  6.192502e-07 -1.000000e+00 -2.730938e-07
    outer loop
      vertex   6.250000e-02 -6.250000e-02  7.379340e-02
      vertex   2.467426e-02 -6.250003e-02  9.715067e-02
      vertex   2.393610e-02 -6.250001e-02  4.091261e-02
    endloop
  endfacet
  facet normal  1.000000e+00  0.000000e+00  0.000000e+00
    outer loop
      vertex   6.250000e-02  2.081985e-02 -1.057085e-01
      vertex   6.250000e-02 -1.913042e-02 -8.845334e-02
      vertex   6.250000e-02 -1.819094e-02 -1.348644e-01
    endloop
  endfacet
  facet normal  3.223469e-07 -1.000000e+00 -3.203942e-07
    outer loop
      vertex  -6.250000e-02 -6.249999e-02  1.978760e-01
      vertex  -6.250000e-02 -6.249997e-02  1.513671e-01
      vertex  -1.951018e-02 -6.249996e-02  1.713645e-01
    endloop
  endfacet
  facet normal -1.000000e+00 -0.000000e+00  0.000000e+00
    outer loop
      vertex  -6.250000e-02  6.250002e-02  2.302246e-01
      vertex  -6.250000e-02  1.692093e-02  1.997779e-01
      vertex  -6.250000e-02  3.027348e-02  2.500000e-01
    endloop
  endfacet
  facet normal  0.000000e+00  1.000000e+00  2.107334e-07
    outer loop
      vertex   6.250000e-02  6.250003e-02  2.500000e-01
      vertex   2.929681e-02  6.250004e-02  2.146445e-01
      vertex   3.417969e-03  6.250003e-02  2.500000e-01
    endloop
  endfacet
  facet normal -0.000000e+00  1.000000e+00  1.907925e-07
    outer loop
      vertex  -3.076172e-02  6.250003e-02 -2.500000e-01
      vertex  -1.319586e-02  6.250002e-02 -2.109493e-01
      vertex   1.074219e-02  6.250003e-02 -2.500000e-01
    endloop
  endfacet
  facet normal -8.735275e-07  1.000000e+00  9.881069e-07
    outer loop
      vertex  -6.250000e-02  6.249997e-02 -1.484222e-01
      vertex  -2.368420e-02  6.250002e-02 -1.631191e-01
      vertex  -6.250000e-02  6.250003e-02 -2.049741e-01
    endloop
  endfacet
  facet normal  1.512158e-07  1.000000e+00  3.228816e-07
    outer loop
      vertex   6.250000e-02  6.250000e-02 -7.324209e-03
      vertex   2.454553e-02  6.250001e-02 -3.569946e-02
      vertex   2.107237e-02  6.250000e-02  1.207768e-02
    endloop
  endfacet
  facet normal -8.133015e-07  1.000000e+00 -1.265155e-06
    outer loop
      vertex   6.250000e-02  6.250005e-02  2.050781e-01
      vertex   2.465029e-02  6.249997e-02  1.675745e-01
      vertex   2.929681e-02  6.250004e-02  2.146445e-01
    endloop
  endfacet
  facet normal -1.000000e+00  0.000000e+00  0.000000e+00
    outer loop
      vertex  -6.250000e-02 -2.534102e-02  5.474413e-02
      vertex  -6.250000e-02  1.928382e-02  8.175124e-02
      vertex  -6.250000e-02  1.488425e-02  2.668642e-02
    endloop
  endfacet
  facet normal -1.000000e+00 -0.000000e+00  0.000000e+00
    outer loop
      vertex  -6.250000e-02  1.928382e-02  8.175124e-02
      vertex  -6.250000e-02 -2.534102e-02  5.474413e-02
      vertex  -6.250000e-02 -2.031270e-02  1.022668e-01
    endloop
  endfacet
  facet normal  1.000000e+00  0.000000e+00  0.000000e+00
    outer loop
      vertex   6.250000e-02  6.250005e-02  2.050781e-01
      vertex   6.250000e-02  6.250003e-02  2.500000e-01
      vertex   6.250000e-02  1.478221e-02  2.149494e-01
    endloop
  endfacet
  facet normal -3.463954e-07 -1.000000e+00 -3.630344e-07
    outer loop
      vertex   6.250000e-02 -6.250000e-02 -1.535949e-01
      vertex   6.250000e-02 -6.250001e-02 -1.125488e-01
      vertex   2.876610e-02 -6.249999e-02 -1.521918e-01
    endloop
  endfacet
  facet normal  5.482076e-07 -1.000000e+00 -3.117221e-08
    outer loop
      vertex  -1.659008e-02 -6.250001e-02 -1.132972e-01
      vertex   2.876610e-02 -6.249999e-02 -1.521918e-01
      vertex   2.541194e-02 -6.249999e-02 -9.167261e-02
    endloop
  endfacet
  facet normal  1.758295e-07  1.000000e+00  3.246708e-07
    outer loop
      vertex  -1.991609e-02  6.250001e-02 -1.162073e-02
      vertex   2.107237e-02  6.250000e-02  1.207768e-02
      vertex   2.454553e-02  6.250001e-02 -3.569946e-02
    endloop
  endfacet
  facet normal -1.626790e-07 -1.000000e+00  7.543682e-07
    outer loop
      vertex   1.834124e-02 -6.250003e-02 -2.087611e-01
      vertex   2.876610e-02 -6.249999e-02 -1.521918e-01
      vertex  -1.972843e-02 -6.249999e-02 -1.675879e-01
    endloop
  endfacet
  facet normal  1.000000e+00  0.000000e+00  0.000000e+00
    outer loop
      vertex   6.250000e-02 -1.913042e-02 -8.845334e-02
      vertex   6.250000e-02 -2.087386e-02 -4.207279e-02
      vertex   6.250000e-02 -6.250000e-02 -7.541654e-02
    endloop
  endfacet
  facet normal  1.933786e-08  1.000000e+00 -3.267394e-07
    outer loop
      vertex   2.107237e-02  6.250000e-02  1.207768e-02
      vertex  -2.240492e-02  6.250001e-02  3.230733e-02
      vertex   2.042378e-02  6.250001e-02  5.764494e-02
    endloop
  endfacet
  facet normal  2.570615e-07  1.000000e+00  1.841730e-07
    outer loop
      vertex  -1.991609e-02  6.250001e-02 -1.162073e-02
      vertex  -2.240492e-02  6.250001e-02  3.230733e-02
      vertex   2.107237e-02  6.250000e-02  1.207768e-02
    endloop
  endfacet
  facet normal  2.891793e-07  1.000000e+00 -6.721324e-07
    outer loop
      vertex  -2.368420e-02  6.250002e-02 -1.631191e-01
      vertex   1.352365e-02  6.250003e-02 -1.360257e-01
      vertex   2.012982e-02  6.250000e-02 -1.775234e-01
    endloop
  endfacet
  facet normal  9.614715e-07 -1.000000e+00  2.811137e-07
    outer loop
      vertex   6.250000e-02 -6.249999e-02  1.268010e-01
      vertex   2.467426e-02 -6.250003e-02  9.715067e-02
      vertex   6.250000e-02 -6.250000e-02  7.379340e-02
    endloop
  endfacet
  facet normal  1.000000e+00  0.000000e+00  0.000000e+00
    outer loop
      vertex   6.250000e-02 -6.249999e-02  1.268010e-01
      vertex   6.250000e-02 -6.250000e-02  7.379340e-02
      vertex   6.250000e-02 -2.437282e-02  1.088857e-01
    endloop
  endfacet
  facet normal -3.589143e-07  1.000000e+00  3.394815e-07
    outer loop
      vertex  -1.766022e-02  6.249999e-02  1.394976e-01
      vertex   2.778019e-02  6.250001e-02  1.107249e-01
      vertex  -1.902574e-02  6.250001e-02  8.318660e-02
    endloop
  endfacet
  facet normal -1.666618e-06  0.000000e+00 -1.000000e+00
    outer loop
      vertex   6.250000e-02  2.075233e-03 -2.500000e-01
      vertex   1.779521e-02  1.659797e-02 -2.499999e-01
      vertex   6.250000e-02  6.250003e-02 -2.500000e-01
    endloop
  endfacet
  facet normal  1.000000e+00  0.000000e+00 -0.000000e+00
    outer loop
      vertex   6.250000e-02 -2.437282e-02  1.088857e-01
      vertex   6.250000e-02 -2.031540e-02  1.681502e-01
      vertex   6.250000e-02 -6.249999e-02  1.268010e-01
    endloop
  endfacet
  facet normal  1.000000e+00  0.000000e+00  0.000000e+00
    outer loop
      vertex   6.250000e-02 -6.250003e-02  2.500000e-01
      vertex   6.250000e-02 -3.141950e-02  2.195850e-01
      vertex   6.250000e-02  5.371019e-03  2.500000e-01
    endloop
  endfacet
  facet normal  1.000000e+00 -0.000000e+00  0.000000e+00
    outer loop
      vertex   6.250000e-02  1.967680e-02 -2.116482e-01
      vertex   6.250000e-02  6.250003e-02 -2.500000e-01
      vertex   6.250000e-02  6.249999e-02 -1.978760e-01
    endloop
  endfacet
  facet normal -2.875026e-07 -1.000000e+00 -1.640118e-07
    outer loop
      vertex  -1.659008e-02 -6.250001e-02 -1.132972e-01
      vertex  -1.887958e-02 -6.250002e-02 -6.385673e-02
      vertex  -6.250000e-02 -6.250001e-02 -7.824703e-02
    endloop
  endfacet
  facet normal  1.000000e+00 -0.000000e+00  0.000000e+00
    outer loop
      vertex   6.250000e-02 -3.141950e-02  2.195850e-01
      vertex   6.250000e-02  1.478221e-02  2.149494e-01
      vertex   6.250000e-02  5.371019e-03  2.500000e-01
    endloop
  endfacet
  facet normal  1.000000e+00  0.000000e+00  0.000000e+00
    outer loop
      vertex   6.250000e-02 -3.141950e-02  2.195850e-01
      vertex   6.250000e-02 -2.031540e-02  1.681502e-01
      vertex   6.250000e-02  1.478221e-02  2.149494e-01
    endloop
  endfacet
  facet normal -4.136223e-07 -1.000000e+00 -3.292079e-07
    outer loop
      vertex  -1.659008e-02 -6.250001e-02 -1.132972e-01
      vertex  -6.250000e-02 -6.250001e-02 -7.824703e-02
      vertex  -6.250000e-02 -6.249999e-02 -1.348266e-01
    endloop
  endfacet
  facet normal  1.000000e+00  0.000000e+00  0.000000e+00
    outer loop
      vertex   6.250000e-02 -6.250004e-02  1.794664e-01
      vertex   6.250000e-02 -6.249999e-02  1.268010e-01
      vertex   6.250000e-02 -2.031540e-02  1.681502e-01
    endloop
  endfacet
  facet normal  1.000000e+00  0.000000e+00  0.000000e+00
    outer loop
      vertex   6.250000e-02 -2.385518e-02 -2.222768e-01
      vertex   6.250000e-02 -6.250004e-02 -2.111320e-01
      vertex   6.250000e-02 -6.250003e-02 -2.500000e-01
    endloop
  endfacet
  facet normal  1.000000e+00 -0.000000e+00  0.000000e+00
    outer loop
      vertex   6.250000e-02 -6.250004e-02 -2.111320e-01
      vertex   6.250000e-02 -2.385518e-02 -2.222768e-01
      vertex   6.250000e-02 -2.106358e-02 -1.839794e-01
    endloop
  endfacet
  facet normal -2.639213e-07 -1.000000e+00 -9.902907e-07
    outer loop
      vertex   6.250000e-02 -6.250004e-02  1.794664e-01
      vertex   2.290296e-02 -6.250000e-02  1.486394e-01
      vertex   6.250000e-02 -6.249999e-02  1.268010e-01
    endloop
  endfacet
  facet normal  1.000000e+00  0.000000e+00  0.000000e+00
    outer loop
      vertex   6.250000e-02  1.967680e-02 -2.116482e-01
      vertex   6.250000e-02 -2.385518e-02 -2.222768e-01
      vertex   6.250000e-02  2.075233e-03 -2.500000e-01
    endloop
  endfacet
  facet normal  2.114072e-07 -1.000000e+00 -4.239255e-07
    outer loop
      vertex  -1.972843e-02 -6.249999e-02 -1.675879e-01
      vertex   2.876610e-02 -6.249999e-02 -1.521918e-01
      vertex  -1.659008e-02 -6.250001e-02 -1.132972e-01
    endloop
  endfacet
  facet normal -6.578377e-07 -1.000000e+00 -9.801495e-08
    outer loop
      vertex   2.541194e-02 -6.249999e-02 -9.167261e-02
      vertex   2.876610e-02 -6.249999e-02 -1.521918e-01
      vertex   6.250000e-02 -6.250001e-02 -1.125488e-01
    endloop
  endfacet
  facet normal -3.853824e-07 -1.000000e+00 -3.894272e-07
    outer loop
      vertex  -1.972843e-02 -6.249999e-02 -1.675879e-01
      vertex  -1.659008e-02 -6.250001e-02 -1.132972e-01
      vertex  -6.250000e-02 -6.249999e-02 -1.348266e-01
    endloop
  endfacet
  facet normal -2.155157e-06 -1.000000e+00  6.673543e-07
    outer loop
      vertex   2.807617e-02 -6.250003e-02  2.500000e-01
      vertex  -1.645357e-02 -6.249996e-02  2.178390e-01
      vertex   2.342770e-02 -6.250005e-02  2.014951e-01
    endloop
  endfacet
  facet normal -1.000000e+00  0.000000e+00  0.000000e+00
    outer loop
      vertex  -6.250000e-02  6.250000e-02 -3.222656e-02
      vertex  -6.250000e-02  6.249996e-02 -9.326164e-02
      vertex  -6.250000e-02  1.790822e-02 -7.908421e-02
    endloop
  endfacet
  facet normal -1.000000e+00  0.000000e+00  0.000000e+00
    outer loop
      vertex  -6.250000e-02  1.496257e-02 -2.603425e-02
      vertex  -6.250000e-02  6.250000e-02 -3.222656e-02
      vertex  -6.250000e-02  1.790822e-02 -7.908421e-02
    endloop
  endfacet
  facet normal -1.000000e+00 -0.000000e+00  0.000000e+00
    outer loop
      vertex  -6.250000e-02 -2.690502e-02 -1.612721e-01
      vertex  -6.250000e-02 -6.250001e-02 -1.875153e-01
      vertex  -6.250000e-02 -6.249999e-02 -1.348266e-01
    endloop
  endfacet
  facet normal  2.829788e-07 -1.000000e+00  4.336952e-07
    outer loop
      vertex   2.807617e-02 -6.250003e-02  2.500000e-01
      vertex   2.342770e-02 -6.250005e-02  2.014951e-01
      vertex   6.250000e-02 -6.250003e-02  2.275390e-01
    endloop
  endfacet
  facet normal  0.000000e+00  0.000000e+00  1.000000e+00
    outer loop
      vertex  -6.250000e-02 -6.250003e-02  2.500000e-01
      vertex  -1.721191e-02 -6.250003e-02  2.500000e-01
      vertex  -2.364069e-02 -2.290899e-02  2.500000e-01
    endloop
  endfacet
  facet normal  0.000000e+00 -1.000000e+00 -2.316652e-06
    outer loop
      vertex  -6.250000e-02 -6.250003e-02  2.500000e-01
      vertex  -1.645357e-02 -6.249996e-02  2.178390e-01
      vertex  -1.721191e-02 -6.250003e-02  2.500000e-01
    endloop
  endfacet
  facet normal  0.000000e+00 -1.000000e+00 -2.316652e-06
    outer loop
      vertex  -1.721191e-02 -6.250003e-02  2.500000e-01
      vertex  -1.645357e-02 -6.249996e-02  2.178390e-01
      vertex   2.807617e-02 -6.250003e-02  2.500000e-01
    endloop
  endfacet
  facet normal  2.741423e-07  4.451515e-08  1.000000e+00
    outer loop
      vertex   3.097949e-02 -2.453856e-02  2.500000e-01
      vertex  -2.364069e-02 -2.290899e-02  2.500000e-01
      vertex  -1.721191e-02 -6.250003e-02  2.500000e-01
    endloop
  endfacet
  facet normal -4.318759e-07 -1.379367e-06  1.000000e+00
    outer loop
      vertex  -6.250000e-02 -1.074225e-02  2.500000e-01
      vertex  -2.364069e-02 -2.290899e-02  2.500000e-01
      vertex  -2.784113e-02  2.161775e-02  2.500001e-01
    endloop
  endfacet
  facet normal  3.032603e-07  1.020493e-06  1.000000e+00
    outer loop
      vertex  -2.364069e-02 -2.290899e-02  2.500000e-01
      vertex   3.097949e-02 -2.453856e-02  2.500000e-01
      vertex   2.337682e-02  2.152652e-02  2.499999e-01
    endloop
  endfacet
  facet normal  0.000000e+00  0.000000e+00  1.000000e+00
    outer loop
      vertex  -6.250000e-02 -6.250003e-02  2.500000e-01
      vertex  -2.364069e-02 -2.290899e-02  2.500000e-01
      vertex  -6.250000e-02 -1.074225e-02  2.500000e-01
    endloop
  endfacet
endsolid vcg
